<?xml version="1.0" encoding="UTF-8"?>
<svg id="_圖層_1" data-name="圖層 1" xmlns="http://www.w3.org/2000/svg" viewBox="0 0 100.08 75.63">
  <defs>
    <style>
      .cls-1 {
        fill: #fff;
      }
    </style>
  </defs>
  <g>
    <path class="cls-1" d="m39.45,64.62c.03-.11.05-.19.07-.27-.25-.05-.5-.09-.76-.14,0-.01,0-.03,0-.04.07-.03.15-.05.23-.08-.2-.17-2.52-.17-2.76,0,.05.04.09.07.15.12-.15.03-.28.03-.4.07-.12.04-.24.04-.3.22-.04.12-.25.18-.38.27-.49.33-.86.78-1.21,1.25-.12.16-.29.3-.38.47-.08.15-.09.34-.13.52-.01.06-.02.13-.03.25-.06-.11-.1-.18-.17-.29-.11.48-.04.91-.02,1.34.03,0,.06,0,.1,0,.03-.21.06-.42.09-.63h.03c0,.13,0,.26,0,.39.01.25.03.5.04.74,0,.13.02.22.18.29.14.06.23.24.33.38.17.23.4.32.69.26.12-.03.24-.04.35-.08.09-.04.15-.11.23-.17.03-.02.05-.04.08-.06.39-.19.63-.52.86-.87.21-.33.44-.65.67-.97.17-.25.32-.5.5-.74.12-.16.29-.3.41-.47.19-.28.37-.56.52-.86.13-.26.35-.39.62-.29.15.06.25,0,.31-.13.04-.08.07-.17.1-.25.02,0,.04,0,.06,0,.03.24.07.49.1.73.02.19.03.2.23.17.05.25.09.5.15.81.06-.12.09-.18.15-.3.01.14.02.23.03.32.13.88.02,1.77-.03,2.65,0,.06,0,.14-.05.17-.26.22-.21.52-.23.8,0,.04-.01.08-.02.15-.06-.05-.1-.09-.2-.17-.04.3-.08.57-.11.83-.07-.04-.12-.07-.17-.1-.02.05-.05.11-.06.16-.02.09,0,.18-.04.26-.02.07-.08.12-.13.18-.02.03-.07.04-.09.08-.16.43-.5.67-.87.92.01.03.03.07.05.13-.7.07-1.37.1-2.09-.05.08-.06.14-.1.24-.17-.17-.02-.29-.03-.42-.04-.27-.03-.29-.05-.26-.31.02-.16-.06-.22-.17-.33-.14-.14-.37-.21-.43-.33-.14-.28-.43-.34-.63-.51-.1-.08-.27-.07-.42-.14l.28-.09v-.04c-.14-.01-.29-.02-.43-.05-.1-.02-.2-.07-.27-.14-.29-.28-.58-.56-.91-.79-.18-.13-.34-.3-.34-.54,0-.29-.02-.59,0-.88.01-.13.11-.26.19-.37.08-.1.08-.17,0-.26-.3-.34-.14-.87.3-.97.19-.05.26-.14.24-.32,0-.07-.02-.15-.02-.22,0-.12.02-.25.05-.37.04-.19.1-.39.15-.58.02-.07.02-.15.06-.2.37-.45.81-.83,1.3-1.12.36-.21.75-.46,1.22-.43.13,0,.27-.03.42-.05-.03-.05-.06-.08-.11-.15.26-.02.49-.03.73-.04.36-.02.72-.05,1.09-.04.6.01,1.19.06,1.79.09.24.27.69.13.92.44.04.05.13.06.2.1.61.35,1.17.78,1.66,1.29.16.17.37.29.52.46.26.28.47.62.75.87.21.2.25.45.34.71.06-.03.1-.05.16-.08.04.47.09.92.13,1.42.07-.12.11-.19.15-.26.01,0,.03,0,.04,0,0,.1.03.21.01.31-.1.42-.2.85-.51,1.18-.04.04-.09.1-.14.1-.2.02-.23.16-.22.32,0,.13-.01.24-.18.26-.03,0-.09.04-.09.06,0,.19-.14.21-.28.25-.06.02-.1.12-.18.21,0,0-.06,0-.07-.04-.05-.16-.17-.21-.31-.26-.07-.03-.11-.11-.17-.16-.03-.03-.07-.07-.1-.07-.07-.01-.15-.02-.22,0-.33.07-.55-.14-.73-.35-.09-.11-.1-.29-.15-.49.13-.03.25-.05.37-.08.15-.03.36.03.36-.23,0-.02.05-.06.07-.06.23,0,.2-.16.2-.31,0-.43,0-.86,0-1.29,0-.11,0-.21-.16-.24-.04,0-.08-.08-.09-.14-.03-.1-.03-.22-.08-.31-.03-.07-.12-.12-.2-.16-.04-.23-.14-.41-.35-.57-.31-.23-.56-.53-.85-.79-.18-.16-.4-.28-.6-.43-.03-.02-.07-.05-.08-.08-.05-.21-.19-.23-.43-.16Z"/>
    <g>
      <path class="cls-1" d="m63.44,70.33c.13-.11.14-.23.03-.33-.08-.08-.15-.19-.29-.14-.02,0-.04,0-.05.01-.12.09-.23.18-.35.27-.08.06-.18.09-.27.14-.02.01-.05.02-.06.04-.07.2-.16.38-.3.55-.09.1-.14.24-.21.36-.01.02-.02.03-.04.05-.11.14-.25.27-.33.43-.08.16-.22.26-.32.4-.11.15-.21.31-.31.46-.07.1-.12.22-.21.3-.18.16-.25.38-.36.58-.1.17-.15.36-.29.51-.1.11-.14.27-.21.4-.02.03-.04.07-.06.1-.07.11-.13.22-.2.33,0,.01,0,.03-.02.04-.09.12-.18.24-.27.36-.06.08-.1.17-.16.25-.06.08-.14.11-.25.1-.07,0-.14,0-.21,0-.05.15-.18.06-.27.08-.03,0-.07-.03-.1-.04,0-.01,0-.02,0-.04-.04,0-.08,0-.11,0-.11.01-.21,0-.27-.11,0-.01-.02-.03-.03-.03-.24-.05-.22-.29-.32-.44-.09-.13-.15-.28-.22-.42-.02-.03-.03-.06-.03-.1,0-.06,0-.12-.06-.18-.03-.03,0-.14.01-.21,0-.03.05-.05.04-.07-.01-.11.05-.17.1-.25.11-.15.21-.32.31-.48,0,0,0-.01,0-.02-.02-.15.09-.25.15-.37.01-.03.02-.06.02-.09,0-.08,0-.15,0-.23,0-.02,0-.06,0-.06.14-.06.05-.19.08-.28,0-.03.03-.06.05-.08.01-.02.03-.04.03-.06,0-.08,0-.16,0-.24,0-.05-.02-.11.06-.12.01,0,.02-.05.02-.08,0-.21,0-.42,0-.64,0-.04-.02-.1.06-.11.01,0,.02-.05.02-.08,0-.19,0-.38,0-.57,0-.03.04-.06.05-.09.01-.03.03-.07.03-.1,0-.46,0-.91,0-1.37,0-.05-.03-.12.07-.12,0,0,.02-.04.02-.06,0-.09,0-.19,0-.28,0-.06-.03-.13.07-.16.01,0,.02-.08.02-.12,0-.52,0-1.04,0-1.56,0-.06-.03-.13.07-.15.01,0,.02-.05.02-.08,0-.31,0-.61,0-.92,0-.03-.03-.05-.05-.08-.01-.02-.03-.04-.03-.07,0-.06,0-.13,0-.19,0-.03-.04-.05-.05-.08-.01-.04-.03-.07-.03-.11,0-.12-.08-.21-.13-.31-.04-.07-.05-.27,0-.33.01-.01.04-.03.04-.04,0-.19.1-.34.23-.47,0,0,.01-.01.01-.02,0-.17.14-.14.25-.14,0,0,0-.02-.01-.03.04-.02.08-.05.12-.05.1,0,.21,0,.31,0,.04,0,.09-.01.1.06,0,0,.04.02.07.02.09,0,.17,0,.26,0,.04,0,.07.03.1.04,0,.01,0,.03,0,.04.17,0,.34,0,.51,0,.01,0,.03,0,.04,0,.16-.16.42-.24.45-.51,0-.02.02-.05.04-.06.14-.06.27-.12.41-.18.04-.02.06-.05.1-.08.04-.03.09-.05.14-.08.03-.02.06-.03.08-.05.15-.19.38-.27.59-.37.02-.01.04-.02.06-.04,0,0,.01,0,.02-.01.19-.16.35-.35.56-.5.22-.15.4-.37.58-.56.11-.11.18-.25.18-.42,0-.05.03-.1.06-.14.04-.07.09-.14.15-.23.14.02.2-.12.3-.22.17-.16.16-.16.37-.06.19.09.38.18.57.28.05.03.09.07.12.12.04.08.07.16.1.25,0,.02.03.03.04.03.17.05.28.18.29.35,0,.02,0,.06.01.06.11.03.07.11.07.18,0,.12,0,.24,0,.36.01.13-.03.22-.12.3-.06.06-.09.14-.14.21-.03.04-.07.1-.11.11-.13.04-.21.15-.3.23-.1.08-.2.14-.31.21-.1.06-.22.07-.3.17,0,0-.02.01-.03,0-.13-.04-.25.04-.32.1-.12.1-.25.05-.37.08,0,0,0,.02,0,.03-.04.02-.08.04-.12.05-.06.02-.14-.04-.16.07,0,0-.04.01-.07.01-.08,0-.15,0-.23,0-.08.17-.24.03-.35.1-.04.14-.17.03-.25.08-.04.14-.17.04-.25.08-.04.14-.17.04-.24.1-.04.02-.09.05-.12.05-.16-.03-.23.1-.3.2-.05.07-.01.16.03.25.08.17.21.28.34.4.01.01.03.04.03.05-.01.21.14.35.21.52.04.1.14.17.18.27.14.33.45.5.67.76.02.02.03.05.05.05.12,0,.22.07.33.1.12.03.27-.09.33-.22.02-.05.05-.09.08-.14.12-.17.23-.34.35-.5.1-.14.2-.28.32-.42.11-.13.24-.25.37-.37.14-.14.23-.3.21-.51,0-.08,0-.15,0-.23,0-.08-.01-.15.07-.21.01,0,.02-.03.02-.05,0-.08.03-.11.11-.1,0,0,.02,0,.02,0,.1-.14.24-.06.36-.08.24-.03.41.08.61.21.18.12.33.27.48.42.11.11.17.27.26.39.09.11.08.24.08.36,0,.03,0,.06-.01.08-.07.1-.13.2-.21.29-.02.03-.06.06-.09.07-.14.03-.21.11-.2.25,0,0-.01.01-.01.01-.19-.03-.29.09-.4.2-.13.14-.26.28-.4.4-.15.12-.32.23-.48.34-.1.07-.19.13-.29.19-.07.04-.14.07-.21.11-.08.05-.15.11-.23.16-.06.04-.13.07-.19.09-.09.04-.19.08-.3.13.1.15.18.32.3.47.12.15.27.29.42.42.04.04.1.06.15.09.02.01.04.02.05.03.07.15.13.3.19.42.13.05.25.08.36.13.04.02.1.06.11.1.04.18.2.25.3.38.01.02.04.03.04.04.08.24.28.36.49.46.13.06.26.12.37.22.1.09.23.14.35.21.09.06.19.12.28.18.12.08.23.17.35.25.12.08.26.15.38.24.09.07.17.15.25.23.06.06.11.09.2.08.07,0,.14,0,.21,0,.02,0,.05.03.07.05.02.01.04.03.06.03.07,0,.13,0,.2,0,.03,0,.05.03.07.05.01.01.03.03.04.03.19,0,.32.1.46.22.1.09.23.15.35.22.01,0,.03,0,.04.02.12.09.24.19.36.27.03.02.06.03.1.03.16-.02.31.02.45.11.16.1.32.19.53.13,0,.1.05.1.11.1.05,0,.1,0,.16,0,.02,0,.06,0,.06.01.02.1.1.08.15.07.14-.02.22.08.33.11.22.08.35.26.5.41.03.03.03.09.04.14-.19.02-.43-.07-.44.25-.04,0-.08,0-.12,0-.2,0-.4,0-.6,0-.05,0-.11-.02-.12.06,0,0-.04.02-.06.02-.06,0-.13,0-.19,0-.02,0-.06,0-.06,0-.03.13-.14.07-.21.07-.15,0-.3,0-.45,0-.04,0-.09.03-.13.05-.15.11-.28.25-.44.34-.1.06-.21.14-.36.11-.03,0-.08.03-.12.05-.02,0-.04.02-.07.03-.02,0-.05,0-.06.01-.07.12-.19.07-.29.07-.19,0-.38,0-.57,0-.03,0-.07-.03-.1-.04,0-.01,0-.03,0-.04-.12,0-.25,0-.37,0-.04,0-.08-.02-.11-.04-.09-.08-.17-.19-.3-.23-.04,0-.07-.05-.1-.09-.09-.12-.24-.15-.35-.23-.16-.12-.34-.08-.51-.07-.14,0-.24-.03-.34-.14-.15-.17-.31-.33-.48-.48-.17-.14-.35-.3-.55-.4-.02-.01-.04-.03-.06-.05-.15-.14-.29-.29-.44-.43-.04-.04-.1-.06-.15-.09-.02-.01-.04-.03-.06-.05-.04-.06-.08-.13-.12-.19-.08-.11-.15-.21-.24-.31-.11-.12-.22-.23-.33-.35-.13-.13-.26-.27-.4-.4-.02-.02-.05-.02-.07-.03-.03,0-.06-.02-.11-.03Zm-.99-.53c0-.05,0-.1,0-.14.01-.05.02-.11.06-.13.16-.12.23-.28.19-.48-.01-.06-.04-.11-.07-.16-.08-.15-.16-.31-.23-.46-.05-.1-.09-.2-.14-.32-.06,0-.14-.01-.21,0-.1.02-.22-.07-.29.08,0,0-.02,0-.03,0-.06,0-.12,0-.16,0-.04-.08-.07-.13-.09-.18,0-.01,0-.04,0-.06.07-.12.16-.24.13-.39,0-.07,0-.15,0-.22,0-.02-.01-.04-.02-.06-.02-.04-.05-.08-.06-.13-.01-.03,0-.08-.02-.1-.11-.15-.14-.34-.29-.47-.05-.05-.1-.13-.1-.19,0-.11-.04-.2-.09-.28-.06-.09-.09-.21-.16-.28-.21-.2-.29-.47-.41-.71-.06-.12-.16-.19-.24-.28,0,0-.02,0-.02.01v.26c-.06,0-.11,0-.16,0,0,.02,0,.04,0,.06,0,.31,0,.61,0,.92,0,.03-.02.07-.03.1-.01.04-.05.07-.05.1,0,.26,0,.53,0,.79,0,.03-.02.07-.03.1-.01.04-.05.07-.05.1,0,.27,0,.54,0,.8,0,.03,0,.09-.02.09-.07.02-.06.07-.06.11,0,.26,0,.52,0,.78,0,.04,0,.1-.02.1-.08.02-.06.08-.06.12,0,.26,0,.51,0,.77,0,.04-.02.08-.03.11-.01.04-.05.07-.05.1,0,.26,0,.52,0,.78,0,.07,0,.13-.1.13.09.09.16.17.24.25.01.01.07,0,.1-.02.15-.07.28-.18.39-.3,0-.01.03,0,.05-.02.04-.02.07-.03.1-.06.14-.11.29-.23.43-.34.01,0,.02-.01.04-.02.12-.05.25-.09.34-.2.02-.02.04-.03.07-.05.13-.08.25-.16.38-.23.13-.07.11-.3.31-.3,0,0,0-.01.01-.02.05-.05.09-.11.15-.15.05-.03.11-.06.16-.06.06,0,.11.06.17.1Z"/>
      <path class="cls-1" d="m48,61.32s.06-.04.09-.05c.02,0,.04,0,.06,0,.2,0,.31-.08.38-.28,0-.03.05-.05.08-.06.1,0,.2,0,.3,0,.08-.17.24-.03.33-.12.04-.02.08-.05.12-.05.3,0,.59,0,.89,0,0,0,0-.02,0-.03.04-.02.08-.05.12-.05.16,0,.33,0,.49,0,.03,0,.07-.03.1-.04,0-.01,0-.03,0-.04.05,0,.11,0,.16,0,.03,0,.05-.04.08-.05.03-.01.07-.02.1-.03.06-.01.11-.02.17-.05.12-.07.26-.16.42-.11.02,0,.04.02.06.04.07.08.09.07.18,0,.06-.04.15-.04.21-.07.04-.02.08-.05.12-.05.1,0,.2,0,.27,0,.05-.04.08-.09.11-.08.13.03.23-.05.32-.11.09-.06.18-.06.27-.06,0,0,0-.02,0-.03.04-.02.08-.04.12-.05.09-.03.19-.05.28-.09.08-.03.15-.09.22-.13.04-.02.08-.03.13-.03.23,0,.45,0,.68,0,0-.01,0-.02,0-.03.04-.02.08-.05.12-.05.11,0,.22,0,.32,0,.03,0,.07-.03.1-.04,0-.01,0-.02,0-.04h.3c.09-.17.24-.04.33-.12.04-.02.08-.05.12-.05.07,0,.15,0,.22,0,.05,0,.11.02.12-.06,0,0,.04-.02.06-.02.06,0,.11,0,.17,0,.06,0,.12.02.1-.08h.41c0-.09.05-.09.11-.09.23,0,.46,0,.69,0,.11,0,.17.06.19.14.02.06.06.16-.05.21-.01,0-.02.04-.02.06-.01.21-.15.34-.36.35-.01,0-.02,0-.03,0,0,0,0,.02,0,.03-.05.02-.1.04-.15.05-.03,0-.07,0-.1,0-.06,0-.12,0-.11.08-.07,0-.13,0-.2,0-.05,0-.13-.03-.14.07,0,0-.04.02-.07.02-.08,0-.16,0-.24,0,0,.01,0,.02,0,.03-.04.02-.09.05-.12.05-.13-.02-.2.08-.31.12-.13.04-.22.15-.37.14-.06,0-.12.05-.18.09-.13.07-.26.16-.4.22-.06.03-.14.02-.22.03,0,.02,0,.05,0,.05.09.04.07.11.08.19,0,.03.03.06.05.1.01.02.03.05.03.07,0,.05,0,.1,0,.15-.02.15.06.26.14.37.02.02.02.05.02.07,0,.23,0,.45,0,.68,0,.02,0,.06,0,.06-.12.03-.06.12-.07.19-.01.06.03.14-.07.17,0,0,0,.02,0,.03,0,.13.04.26-.1.35.12.08.28-.06.37.11.03,0,.07,0,.11,0,.05.01.09.04.13.06.06.03.12.07.17.11.11.1.23.19.31.31.08.12.12.27.2.4.04.07.11.14.18.19.11.09.15.22.22.34.03.06.06.13.11.15.07.04.06.08.06.14,0,.05-.04.13.07.14,0,0,.01.04.01.06,0,.18,0,.35,0,.53,0,0,0,0,0,.01-.03.04-.08.07-.08.11,0,.04.06.08.07.12.02.07,0,.15-.07.19-.16.11-.2.26-.18.44,0,.07,0,.14,0,.21,0,.03-.03.05-.05.08-.01.03-.02.06-.03.1-.01.06.04.14-.07.16-.01,0-.01.05-.01.08,0,.13,0,.25,0,.38,0,.03,0,.07-.02.1-.05.08-.1.16-.16.24-.05.06-.07.13-.07.21,0,.02,0,.05,0,.05-.1.04-.05.14-.08.21-.03.08-.08.15-.12.23-.02.04-.04.09-.05.13,0,.15,0,.31,0,.46,0,.03-.03.06-.05.09-.01.02-.03.05-.03.08.03.14-.05.26-.1.38-.06.13-.14.24-.16.39-.02.13-.12.26-.18.38-.1.18-.2.36-.29.55-.02.05,0,.11-.02.16,0,.06.02.12-.06.15-.01,0-.01.05-.02.07-.01.06.04.15-.07.18-.01,0,0,.06,0,.1,0,.1-.07.19-.16.22-.13.04-.18.09-.17.22.01.14-.06.24-.12.34-.03.06-.12.09-.2.14-.02.04-.06.09-.09.15-.01.03,0,.07-.01.1,0,.05.03.12-.07.14,0,0-.02.05-.01.07,0,.08-.03.14-.08.2-.16.19-.39.28-.61.39-.14.07-.27.13-.4.21-.13.07-.25.16-.42.13-.04,0-.08-.01-.09.05,0,.01-.04.03-.07.03-.22,0-.44,0-.66,0-.08,0-.16-.08-.19-.18,0-.03-.04-.05-.05-.08-.02-.04-.03-.07-.03-.11,0-.31,0-.63,0-.94,0-.05-.03-.11-.06-.14-.09-.1-.19-.2-.3-.29-.11-.1-.17-.23-.23-.37,0-.02-.01-.03-.02-.05-.09-.12-.21-.23-.27-.37-.1-.21-.28-.34-.43-.5-.09-.1-.21-.1-.31,0-.22.21-.42.43-.64.64-.19.18-.4.35-.61.51-.11.09-.25.14-.38.2-.07.03-.14.06-.21.09-.01,0-.03.02-.04.04-.07.09-.12.18-.2.26-.2.21-.4.41-.61.6-.12.12-.27.2-.45.18-.08,0-.16,0-.26,0,0-.12-.02-.23,0-.33.02-.08.07-.16.12-.24.07-.12.15-.25.22-.37,0-.01.01-.02.02-.04.13-.16.27-.32.39-.49.09-.12.17-.26.25-.39.01-.02.02-.04.04-.06.11-.14.23-.28.33-.43.14-.2.26-.41.39-.61.07-.11.15-.21.22-.32.09-.14.18-.28.27-.42.06-.1.12-.19.19-.28.09-.12.18-.24.27-.37.03-.04.04-.1.07-.15.11-.18.23-.35.34-.52.13-.2.26-.41.39-.62.08-.12.17-.23.25-.35.11-.17.21-.35.31-.52.05-.08.09-.17.14-.25.01-.02.02-.05.02-.08,0-.07-.02-.14.07-.18,0,0,.01-.02.01-.04,0-.21.11-.36.26-.49.06-.05.09-.11.08-.19,0-.04,0-.09,0-.14,0-.07.02-.11.07-.16.07-.09.12-.2.18-.3.02-.04.04-.08.07-.11.08-.11.17-.22.25-.34.01-.02.01-.05.01-.08,0-.07,0-.14,0-.21,0-.14.01-.25.12-.36.1-.11.15-.26.21-.4.04-.09.06-.2.1-.28.04-.1.03-.22.08-.27.07-.08.04-.17.08-.24.11-.21.16-.45.3-.65.03-.05.02-.13.03-.19,0-.07,0-.13,0-.21-.1,0-.23-.04-.29,0-.09.07-.18.05-.26.08-.13.05-.25.14-.38.2-.2.1-.4.19-.6.3-.1.05-.2.11-.29.18-.12.11-.25.18-.39.24-.14.05-.3.09-.41.17-.13.09-.25.06-.38.07-.21,0-.42,0-.64,0-.04,0-.08-.03-.12-.05-.02,0-.03-.03-.04-.04-.16-.21-.4-.29-.63-.41-.19-.1-.38-.21-.58-.29-.16-.06-.19-.19-.26-.32-.05-.09-.09-.17-.08-.27,0-.01,0-.03-.01-.04-.08-.08-.09-.15-.03-.25.02-.03.04-.07.05-.1.04-.11.11-.16.23-.16.06,0,.11,0,.17,0,0-.01,0-.02,0-.03Zm2.69,9.53c.07.01.15,0,.21.03.11.06.22.15.32.23.12.1.25.18.41.16.04,0,.08,0,.11,0,.14,0,.29,0,.43,0,.13.01.28-.07.39.08.13,0,.28.03.38-.11.07-.1.17-.18.25-.28.08-.12.14-.25.23-.36.1-.13.2-.25.2-.43,0-.02,0-.05.02-.06.08-.03.05-.1.06-.16,0-.04.01-.1.03-.1.07-.02.06-.06.05-.1-.04-.17.12-.29.1-.45,0,0,0-.02,0-.02.09-.03.06-.11.06-.18,0-.03.02-.06.03-.09.01-.03.04-.06.05-.09.02-.09-.05-.21.08-.27,0,0,0-.04,0-.06,0-.06,0-.12,0-.18,0-.02.01-.06.02-.06.08-.01.06-.07.06-.12,0-.08,0-.15,0-.23,0-.02,0-.07.01-.07.1-.01.06-.09.07-.15,0-.11,0-.22,0-.33,0-.03,0-.08.03-.1.15-.12.23-.28.23-.47,0-.01.01-.04.02-.04.08-.01.06-.07.06-.11,0-.41,0-.81,0-1.22,0-.03,0-.06,0-.09h-.4c-.02.05-.02.1-.04.14-.11.18-.23.35-.35.53-.06.08-.11.16-.17.25,0,.01-.02.03-.03.04-.09.14-.17.29-.27.42-.08.1-.18.17-.26.27-.03.03-.04.08-.05.12-.01.04,0,.12-.02.13-.09.04-.06.1-.06.16,0,.03,0,.07-.01.08-.09.07-.13.17-.19.26-.1.15-.23.29-.34.44,0,.01-.02.02-.02.03-.09.2-.17.4-.31.57-.12.14-.2.32-.32.46-.14.18-.31.33-.45.53-.13.2-.29.38-.4.59-.07.13-.13.26-.2.39Z"/>
      <path class="cls-1" d="m60.88,52.32c.14.1.27.16.34.26.07.12.18.18.28.26.1.08.21.16.32.24.07.05.13.11.19.18.03.03.03.08.03.12,0,.05-.02.12.06.13,0,0,.02.03.02.04-.03.12.04.23.09.31.1.13.06.31.16.42.12.13.05.28.08.42.03.1.09.2.13.3.01.03.03.05.03.08,0,.08,0,.17,0,.25,0,.03-.04.06-.05.09,0,.02-.02.03-.03.05,0,.02,0,.03,0,.05.05.28-.09.51-.21.74-.05.1-.11.21-.14.33-.02.09-.03.22-.09.29-.07.08-.03.18-.07.23-.07.09-.04.23-.09.27-.1.08-.04.18-.09.26-.05.08-.09.17-.13.26-.03.05-.06.1-.09.15.05.1.13.13.25.12.05,0,.1,0,.15,0,.11.02.2-.02.27-.11.03-.03.08-.05.12-.05.15,0,.29,0,.44,0,.06,0,.13.03.11-.08h.32s0-.02,0-.03c.04-.02.08-.04.12-.05.07,0,.13-.03.19-.06.09-.05.18-.14.31-.11.05,0,.11-.05.16-.08.14-.08.28-.16.42-.24,0,0,.02-.01.03-.01.13.04.22-.07.32-.09.05-.01.08-.06.13-.07.05-.01.1,0,.15,0,.04-.15.17-.05.24-.12.04-.02.08-.04.12-.05.06-.02.14.04.17-.07,0-.01.05-.01.08-.01.14,0,.28,0,.42,0,.02,0,.05,0,.07-.01.1-.1.14-.1.26,0,.01.01.04.01.06.01.07,0,.13,0,.2,0,.18-.01.32.06.45.18.08.08.17.15.23.24.07.11.14.22.14.37,0,.18-.04.32-.18.43-.09.07-.16.16-.25.24-.13.13-.28.23-.48.21,0,0,0,.02,0,.03-.04.02-.08.05-.12.05-.07,0-.15,0-.22,0-.14,0-.27,0-.37.13-.05.06-.15.08-.22.12-.11.07-.24.1-.37.09-.03,0-.05.04-.1.08h-.19s0,.02,0,.04c-.04.02-.09.04-.13.05-.05,0-.1,0-.16,0-.03,0-.05.03-.07.04-.03.01-.06.03-.09.04-.04,0-.09,0-.14,0,0,.01,0,.02,0,.03-.05.02-.1.05-.15.05-.12,0-.21.02-.3.11-.09.09-.21.17-.35.15-.06,0-.13,0-.2,0-.12-.01-.2.02-.28.11-.05.06-.13.08-.2.12-.14.07-.3.12-.42.21-.08.06-.16.06-.25.07,0,0-.03,0-.03,0-.03.13-.14.07-.21.07-.15,0-.3,0-.47,0,.04-.25-.18-.25-.31-.33-.09-.06-.19-.12-.32-.09-.01,0-.04-.04-.07-.08-.1-.03-.2.01-.3.1-.19.17-.3.39-.4.62-.07.16-.18.3-.29.43-.19.24-.39.46-.6.68-.09.1-.15.22-.25.31-.09.08-.2.12-.31.18-.09.06-.19.11-.32.07,0,.14,0,.26,0,.38,0,.12-.09.21-.21.21-.15,0-.3,0-.42,0-.07.13-.13.24-.18.35-.01.03-.02.07-.02.1,0,.14-.09.22-.25.22.02-.09-.05-.19.07-.26.03-.02,0-.1.02-.15,0-.03.03-.06.05-.09.01-.02.03-.04.03-.07,0-.05,0-.11,0-.16,0-.04.04-.08.06-.12.04-.09.07-.18.11-.27.02-.05.04-.1.06-.15,0-.02.02-.04.02-.06,0-.07-.03-.16.07-.21,0,0,.01-.03,0-.04-.03-.13.06-.19.13-.27.1-.11.19-.24.28-.36,0,0,.01-.02.01-.03-.02-.16.09-.26.15-.39.02-.03.01-.07.02-.11,0-.05-.02-.11.06-.12,0,0,.02-.02.02-.03.02-.28.2-.49.31-.73.08-.18.18-.35.27-.52.01-.03,0-.07,0-.1.01-.04.04-.08.06-.12,0-.02.02-.04.02-.05,0-.08-.02-.16.08-.21,0,0,0-.02,0-.03-.01-.16.08-.27.15-.39.01-.03.01-.06.02-.09,0-.06-.01-.12.06-.15.01,0,.02-.05.02-.07,0-.07-.02-.14.07-.18.01,0,.01-.04.01-.06,0-.07-.02-.15.07-.2.02-.01,0-.09.01-.14,0-.03.03-.06.05-.09.01-.02.03-.04.03-.07,0-.07-.02-.15,0-.19.07-.09.04-.23.09-.28.13-.14.04-.3.07-.44,0-.04-.01-.09.06-.1.01,0,.03-.05.03-.08,0-.14,0-.27,0-.41,0-.03.03-.06.05-.09.01-.02.03-.04.03-.07,0-.08,0-.15,0-.23,0-.04.04-.08.06-.13,0-.02.02-.04.02-.06,0-.06,0-.11,0-.17-.02-.2.09-.43-.13-.53.02-.08.04-.13.05-.18,0-.08,0-.17,0-.25,0-.06.03-.12-.06-.15-.01,0-.02-.06-.02-.09,0-.3,0-.59,0-.89,0-.03,0-.07.02-.08.14-.09.19-.24.24-.39,0-.02.05-.04.08-.04.13,0,.26,0,.39,0,.06,0,.13.02.12-.1Z"/>
      <path class="cls-1" d="m52.51,54.11c.14.02.19-.07.27-.13.09-.08.2-.14.3-.2.13-.08.28-.12.43-.1.05,0,.12-.02.1.08.07,0,.13,0,.19,0,.18,0,.31.07.44.18.12.1.26.17.38.25.03.02.07.05.1.07.31.31.62.61.92.92.03.03.04.07.04.11,0,.1,0,.19,0,.29,0,.07-.04.16.07.2,0,0,.01.02,0,.03-.02.21.13.36.2.53.06.14.17.27.13.44,0,.02,0,.05,0,.05.13.05.07.16.07.24,0,.32,0,.65,0,.97,0,.05-.04.1-.06.15,0,.02-.02.05-.02.08,0,.08,0,.15,0,.23,0,.04-.04.07-.05.11-.01.03-.03.06-.02.09.03.16-.05.26-.16.36-.09.08-.17.17-.3.13-.04-.01-.09-.05-.13-.05-.16,0-.15-.18-.25-.25-.1-.07-.21-.13-.32-.19-.02-.01-.05-.02-.07-.03-.09-.06-.13-.18-.28-.13.06-.11.11-.19.15-.27.01-.03.01-.07.02-.1.02-.18-.05-.33-.12-.48-.07-.15-.2-.24-.28-.37-.11-.18-.25-.32-.39-.48-.09-.1-.17-.22-.25-.33-.06-.09-.12-.17-.18-.26-.01-.02-.02-.05-.02-.08,0-.06.02-.14-.07-.17,0,0-.01-.02-.01-.03,0-.22-.15-.37-.23-.55-.04-.09-.07-.17-.11-.25,0-.02-.02-.04-.03-.05-.12-.09-.15-.24-.23-.36-.05-.09-.09-.17-.08-.27,0-.01-.02-.03-.03-.04-.01-.02-.04-.03-.04-.05-.02-.09.02-.2-.1-.27Z"/>
    </g>
    <g>
      <path class="cls-1" d="m94.44,75.48c0-.17-.02-.28-.17-.29-.18-.01-.06.21-.16.25,0,0-.02-.01-.03-.02q-.11-.12-.23,0c-.13.14-.3.18-.46.2-.08.01-.17-.07-.26-.09-.18-.05-.36-.09-.54-.14-.03,0-.07,0-.08-.03-.1-.17-.28-.13-.4-.24-.06-.06-.12-.02-.17.02-.05.04-.09.03-.12-.03-.02-.03-.05-.07-.08-.09-.1-.07-.18-.15-.18-.31-.09,0-.18.02-.26,0-.13-.04,0-.17-.05-.27h-.17c.01-.13-.04-.21-.13-.26,0,0-.02-.01-.02-.02-.08-.26-.29-.35-.46-.51-.11-.11-.23-.2-.28-.37,0-.03-.04-.05-.07-.06-.18-.04-.25-.21-.33-.38-.08-.17-.16-.33-.25-.49-.03-.05-.09-.08-.14-.13-.05-.06-.11-.11-.14-.18-.03-.07-.06-.11-.12-.11-.12-.01-.21-.06-.2-.23,0-.03-.03-.07-.05-.09-.1-.1-.12-.28-.27-.34-.04-.02-.07-.14-.08-.21-.01-.08-.05-.11-.11-.11-.09.01-.14-.03-.18-.13-.02-.06-.09-.09-.14-.13-.04-.04-.11-.07-.13-.13-.03-.08-.07-.11-.13-.11-.07,0-.09-.04-.06-.12.05-.17.05-.17-.1-.17-.08,0-.12-.03-.13-.13,0-.06-.01-.11-.02-.19-.15.04-.27-.04-.33-.19-.06-.14-.17-.19-.27-.27-.16-.12-.3-.28-.45-.42-.03-.03-.04-.07-.06-.1-.1-.15-.2-.3-.31-.45,0-.01-.02-.01-.03-.02.08-.14.06-.27-.03-.39-.06-.08-.11-.18-.17-.26-.11-.14-.23-.27-.35-.4-.02-.02-.07-.02-.12-.03.16.21.29.41.31.68-.12-.03-.15-.08-.13-.21,0-.04-.01-.1-.03-.14-.04-.07-.1-.13-.16-.19-.06-.05-.12-.09-.19-.12-.06-.02-.12-.02-.18-.02-.11-.01-.16-.08-.15-.21.02-.17-.05-.24-.18-.21-.02,0-.04,0-.07,0,0-.02-.01-.04,0-.06.03-.11,0-.15-.09-.18-.04-.01-.06-.09-.1-.14-.04-.06-.1-.11-.13-.18-.05-.1-.11-.08-.18-.06-.03,0-.1-.01-.1-.03-.03-.12-.1-.13-.18-.12-.03,0-.06,0-.09,0,.02-.17-.11-.23-.17-.34-.03-.06-.08-.05-.11.02-.05.11-.13.11-.21.08-.13-.05-.24-.12-.33-.25-.1-.14-.35-.09-.41.08-.04.13-.11.16-.27.12-.12-.03-.2.02-.28.12-.07.09-.15.16-.22.24-.03.03-.05.07-.06.11-.05.15-.14.27-.25.36-.03-.05-.05-.11-.09-.14-.03-.03-.09-.02-.13-.02,0,.04.02.09.03.13,0,.03.02.05.04.07,0,0,0,.02-.01.03-.04-.01-.09-.02-.13-.04-.05-.02-.08-.01-.1.05-.02.1-.07.14-.16.13-.04,0-.08.02-.13.04,0,.01,0,.03,0,.04.06.01.11.02.17.04.03.01.06.05.08.08-.03.03-.06.08-.08.08-.12-.02-.19.07-.27.13-.09.07-.19.14-.28.21,0-.01-.02-.03-.03-.04.02-.02.04-.05.07-.07.05-.03.11-.06.17-.09.02-.02.03-.06.05-.1-.03-.01-.08-.05-.1-.04-.1.06-.21.13-.3.2-.04.03-.06.09-.09.13-.01.02-.03.04-.04.04-.08.01-.13.05-.15.15,0,.03-.08.05-.12.05-.08,0-.11.04-.11.12,0,.07-.02.11-.09.13-.05.01-.09.07-.13.1,0,0-.01,0-.02.01-.12.1-.3.14-.3.38-.1.1-.2.19-.29.29-.09.1-.17.21-.26.31-.03.03-.07.06-.1.07-.1.02-.16.08-.21.2-.07.17-.19.31-.29.46-.02.02-.06.01-.1.02-.06.01-.12.03-.18.04v.04s.07.07.1.12c.05.07.04.11-.04.14-.17.07-.34.13-.51.21-.06.03-.1.09-.16.11-.06.03-.12.05-.18.04-.09,0-.14.02-.2.11-.05.07-.13.11-.19.16-.05.04-.12.05-.16.1-.17.18-.37.25-.57.33-.02.01-.06.01-.07.03-.04.13-.13.11-.22.11-.03,0-.06,0-.09,0-.06-.02-.11-.04-.18-.07-.02.11-.13.11-.22.11-.29,0-.48.21-.63.47-.12.21-.26.34-.47.38-.14.02-.28.09-.42.12-.17.04-.34.04-.49-.09-.14-.12-.13-.25,0-.37.08-.07.14-.15.2-.25-.07,0-.14,0-.21,0-.04,0-.08-.02-.12-.05-.03-.03-.07-.07-.07-.11,0-.03.04-.07.07-.09.1-.06.19-.12.19-.28,0-.11.18-.21.25-.14.09.08.16.13.27.05-.01.03-.02.06-.04.08-.01.02-.03.04-.04.06-.04.07-.03.23.02.26.07.05.12.02.19-.03.07-.06.16-.1.23-.15.09-.07.23-.11.27-.21.06-.14.04-.32.05-.48,0-.03-.05-.06-.09-.09.07-.12.15-.24.22-.36,0,0,0,0,0,0,.14-.04.18-.23.29-.3.2-.13.33-.34.5-.51.03-.04.05-.1.08-.15.02-.05.05-.13.07-.13.04,0,.1.04.12.08.04.07.08.07.12.01.1-.13.19-.26.28-.39.06-.09.12-.18.18-.28-.03-.06-.03-.05.03-.14.05-.07.08-.16.13-.22.04-.04.1-.07.15-.08.07-.02.1-.05.07-.14-.03-.09,0-.14.08-.16.01,0,.02-.01.04-.02.12-.02.22-.07.2-.26,0-.07.04-.06.09-.06.05,0,.1,0,.14-.03.12-.1.22-.21.33-.32.05-.05.12-.09.19-.14-.02-.02-.04-.03-.05-.04-.02-.03-.03-.06-.05-.09.03-.01.06-.02.08-.04.04-.02.08-.04.1-.07.05-.07.09-.15.12-.24.05-.12.13-.17.24-.19.05,0,.1-.03.13-.07.12-.11.24-.22.3-.4.01-.04.06-.06.09-.08.09-.03.15-.09.21-.18.05-.08.12-.14.18-.21.05-.05.08-.3.05-.39,0-.02-.02-.05-.03-.08.06-.03.11-.06.16-.09.06-.04.1-.09.05-.17,0,0,0,0,0-.01-.08-.21-.07-.23.12-.23.02,0,.04,0,.06,0,.16-.05.35-.38.32-.6-.22.08-.22.35-.34.54-.04-.06-.07-.1-.11-.16.16-.08.22-.22.21-.41,0-.02.04-.07.07-.07.06,0,.12.03.18.05.08-.1.03-.21-.02-.35.08,0,.14,0,.21,0,.08,0,.14-.03.16-.14.02-.08.06-.16.09-.24.03-.11.07-.22.09-.34.01-.06-.01-.11-.08-.12-.04,0-.08-.03-.13-.04.06-.12.13-.19.24-.2.06,0,.1-.02.13-.1.03-.1.29-.22.4-.19-.14.13-.27.26-.4.37-.08.07-.09.15-.09.25,0,.06.02.13.03.2.1-.02.16-.06.21-.16.05-.11.12-.22.18-.32.07-.12.14-.25.21-.37,0-.01.02-.04.01-.05-.04-.2.11-.33.14-.51,0-.03.08-.04.14-.07,0-.01,0-.05,0-.08,0-.08.04-.11.09-.16.09-.08.15-.2.22-.31.01-.02,0-.06.02-.06.08-.04.16-.05.23-.1.08-.05.14-.1.22-.02.02.02.05.02.09.05-.15-.32-.07-.25.12-.3.06-.01.13-.06.18-.1.03-.02.05-.07.08-.1.05-.06.1-.07.16,0,.11.14.13.13.22-.03.07-.12.11-.24.11-.39,0-.02,0-.04,0-.06.12-.17.17-.38.23-.59.03-.09.08-.08.14-.05.09.05.13.02.17-.1-.01-.01-.03-.03-.05-.04-.06-.05-.06-.09,0-.14.11-.11.2-.24.36-.25.02,0,.04-.05.04-.08,0-.14.02-.27.14-.35.03-.02.06-.1.05-.14-.03-.22.04-.41.17-.55.24-.26.42-.56.54-.92.02-.05.05-.1.08-.12.08-.04.09-.11.08-.2,0-.09,0-.17.08-.23.02-.02.02-.08.03-.12,0-.05,0-.12.03-.13.11-.07.1-.19.06-.28-.07-.19.03-.3.11-.43.02-.04.06-.07.08-.09,0-.24.06-.45.14-.65.02-.05.03-.11.02-.17,0-.07.01-.08.06-.08.1,0,.2,0,.3,0,.03,0,.06.02.08.03.25.16.5.29.78.34.1.02.2.05.22.2,0,.02.04.04.06.05,0,0,.02,0,.03,0,.16,0,.3.04.38.22.04.08.09.07.16.03.12-.08.12-.08.18.06.02.04.04.08.05.12.02.06.05.09.11.06.05-.03.08,0,.11.05.05.07.14.11.15.22,0,.02.07.02.11.03.18.04.18.04.17.25,0,.1,0,.16.11.14.08-.02.12.05.09.15-.03.09-.03.16.05.22.06.05.08.13.03.21-.02.04-.03.09-.05.12-.02.03-.05.05-.08.07-.01-.05-.03-.11-.04-.16,0,0,.02-.02.02-.02,0-.03,0-.07-.01-.1-.03.01-.07.01-.08.03-.02.08-.04.17-.05.26,0,.09.05.11.11.09.07-.02.09.01.09.09,0,.06,0,.12.01.17,0,.03,0,.07,0,.08-.13.06-.06.18-.06.27,0,.02,0,.04,0,.08-.13-.02-.09-.17-.14-.24,0,0-.02,0-.02,0-.05.14-.21.13-.27.28-.05.14-.13.28-.18.42-.02.05-.01.11,0,.16,0,.08-.01.12-.08.11-.07-.01-.12.03-.13.11-.03.14-.14.15-.21.22-.02.02-.04.03-.09.06.08.02.12.03.2.05-.04.06-.06.12-.1.14-.03.01-.08-.02-.12-.04-.04-.02-.08-.07-.13-.08-.1-.02-.17.08-.14.2.04.15.04.15-.09.18-.1.02-.2.04-.3-.05-.02-.01-.06-.01-.07,0-.09.1-.2.18-.22.35-.01.11-.03.22-.04.33,0,.04-.02.1-.04.11-.08.05-.09.14-.12.23-.04.13-.08.26-.14.36-.04.07-.13.1-.21.13-.04.02-.07.03-.08.09-.01.05-.05.1-.09.12-.12.07-.21.16-.26.31-.04.13-.1.26-.15.39,0,.02-.02.04-.04.05-.1.04-.1.12-.08.22,0,.02,0,.05-.02.08-.03.08-.14.14-.03.25,0,0,0,.06-.02.09-.03.08-.06.17-.11.27.05,0,.08-.01.11-.02.06,0,.11-.02.17-.03.09-.02.12.02.12.13,0,.15,0,.29.02.44,0,.04.04.07.06.1.03-.03.06-.05.08-.08.02-.04.04-.1.06-.17.03.05.05.07.05.1,0,.11.06.14.13.16.08.02.13.07.17.16.03.09.07.15.16.16.08,0,.08.07.04.14-.08.14-.08.15.06.21.12.04.22.1.28.25,0,.02.03.05.06.06.11.05.23.09.34.14-.01.08-.02.13-.03.19,0,.1.02.14.1.1.07-.03.1-.02.13.06.04.1.1.19.15.29,0,0,.01.02.02.02.16.05.2.22.28.36,0,0,0,.03.01.03.17.04.23.25.36.35.04.03.06.11.07.17.01.08.04.13.11.15.05.01.09.04.14.05.09.02.17.05.18.19,0,.03.06.07.09.07.12,0,.19.09.23.22.04.13.13.19.23.25.04.03.08.07.11.12.08.13.14.28.23.38.21.21.44.4.67.6.02.02.05.02.05.05.1.23.31.32.45.51.03.04.07.07.07.11,0,.07.04.08.09.11.15.06.3.13.44.21.03.02.03.11.04.16,0,.03,0,.06,0,.09.01,0,.02.01.02.01.18-.09.28.09.42.16.03.02.05.09.06.15,0,.08.03.1.09.1.08,0,.16,0,.23.01.12.02.15.06.14.21,0,.1.02.12.1.11.15-.02.27.06.39.15.05.04.11.09.08.19,0,.02.04.08.07.08.14.02.28.04.41.05.07,0,.12.01.12.12,0,.01,0,.02,0,.03.03.09.33.28.41.24.12-.06.23-.04.34.04.02.02.05.02.1.04-.03.09-.06.17-.1.27.1.08.22.17.35.26.13.09.27.16.39.27.2.17.42.26.66.34.03,0,.06.02.08.03-.02-.07-.05-.14-.07-.22.19-.05.25.01.23.22,0,.08.01.12.08.13.05,0,.09.05.14.06.05.01.1,0,.16.01-.02-.1-.05-.12-.11-.11-.03,0-.06,0-.09,0-.02,0-.03-.04-.04-.07.02-.01.05-.04.07-.03.07.03.14.06.19.11.09.08.19.1.29.06.02-.01.06,0,.09.01.16.1.22.27.21.48,0,.05.02.13.05.14.08.03.18.11.26,0,.06-.07.09-.13.14.01.02.05.08.07.13,0,.08-.11.11-.1.18,0,.02.03.05.04.08.05.03,0,.06,0,.1,0,.11,0,.2.03.23.19.03.15.1.26.25.27.05,0,.09,0,.09-.08,0-.1.04-.1.11-.06.16.08.33.15.49.22.04.02.09.04.12.08.1.2.26.15.41.14.03,0,.06-.01.08,0,.09.07.18.11.27.02,0,0,.03,0,.05,0,.09.07.18.13.25.21.02.02.01.11,0,.15-.04.11-.13.21-.1.35,0,.01-.02.03-.03.04-.15.13-.3.26-.46.39-.01.01-.02.03-.04.04-.14.02-.24.13-.34.24-.02.02-.06.04-.09.04-.17.02-.35.04-.53.05-.06,0-.08.02-.12.08-.12.16-.25.33-.46.3-.02,0-.05,0-.06.02-.12.09-.25.09-.38.09-.06,0-.13,0-.15-.09,0,0-.05,0-.07,0-.06.03-.11.08-.17.11-.07.04-.13.08-.2.1-.07.02-.14.03-.21.05-.07.02-.13.01-.18-.07-.04-.06-.26-.03-.3.03-.04.05-.08.05-.11,0-.06-.1-.11-.09-.18-.02-.03.03-.06.05-.09.06-.08,0-.16,0-.17.14,0,0-.04.02-.06.02-.2-.07-.4-.06-.6,0-.08.02-.15.02-.19-.09-.02-.07-.07-.08-.12-.03-.03.03-.06.05-.12.1Zm-9.28-8.27s.09-.04.12-.06c.09-.06.09-.1.02-.19-.1-.14-.2-.29-.31-.43-.05-.07-.11-.14-.18-.21-.03-.03-.1-.05-.08.02.02.12.05.27.12.33.08.08.13.16.19.26.03.05.06.1.09.14,0,0,.01,0,.02-.01,0,.04,0,.08.01.15Zm-1.31-1.5s.02-.02.03-.04c0-.07.02-.15,0-.2-.05-.1-.12-.19-.25-.19.04.07.07.12.09.19.01.03.02.09.01.12-.03.07-.01.11.02.15.03.04.07.08.09.13.04.1.13.1.2.11.03,0,.07-.05.1-.07-.02-.03-.04-.07-.07-.09-.07-.05-.15-.08-.22-.12Zm2.35-6.12s-.02-.02-.03-.03c-.07.1-.17.18-.21.3-.03.09-.06.15-.13.2-.04.03-.06.09-.09.14.05,0,.11.02.16.02.02,0,.05-.02.06-.03.14-.16.23-.35.23-.59Zm11.64,13.15s.02-.03.03-.05c-.04-.04-.07-.08-.11-.11-.08-.05-.18-.07-.26-.13-.08-.06-.14-.04-.22,0,.19.08.34.29.56.28Zm-1.36-.72c-.03-.13-.23-.26-.31-.22-.02,0-.03.07-.02.09.02.04.05.07.09.08.08.02.16.03.25.05Zm-2.6-1.66s-.09.06-.1.1c-.02.06.09.15.16.13.03,0,.07-.07.07-.11,0-.1-.06-.1-.13-.12Zm-11.44-4.78c-.1.01-.13.08-.13.16,0,.03.05.08.08.08.07,0,.13-.05.13-.14,0-.03-.05-.07-.08-.1Zm1.94.6s.02-.04.03-.06c-.06-.05-.12-.11-.18-.16,0,0-.04,0-.04.01,0,.02-.01.06,0,.06.06.05.13.09.2.14Zm.56-4.16s0-.03,0-.05c-.03-.02-.06-.05-.1-.05-.03,0-.06.04-.09.06.03.03.07.07.1.08.02,0,.05-.03.08-.04Zm.66.9s-.02,0-.03,0c0,.04,0,.12,0,.12.04.02.09.01.13.01,0-.01,0-.02,0-.03-.04-.04-.07-.07-.11-.11Zm14.27,10.52s-.07-.05-.1-.05c-.02,0-.05.05-.05.06.01.03.04.07.06.07.02,0,.05-.04.08-.08Zm-16.61-7.74s-.06-.07-.08-.09c-.01.02-.04.05-.04.06.01.03.04.06.06.08,0,0,.03-.02.06-.04Zm-1-.13s-.02-.03-.02-.05c-.03.02-.06.04-.09.06,0,0,.02.04.02.06.03-.03.06-.05.09-.08Z"/>
      <path class="cls-1" d="m79.88,63.03c-.02-.08-.04-.15-.05-.23,0-.04.03-.09.05-.13.03.02.08.03.1.07.08.14.06.19-.1.29Z"/>
      <path class="cls-1" d="m73.54,70.79s.07-.07.11-.1c.01.03.03.08.03.08-.03.03-.07.05-.1.08-.01-.02-.02-.04-.03-.06Z"/>
      <path class="cls-1" d="m75.82,68.76c-.05.03-.1.06-.17.1.04-.1.08-.16.15-.14,0,.01.01.03.02.04Z"/>
    </g>
    <g>
      <path class="cls-1" d="m31.36,73.17c-.02-.05-.02-.11-.02-.17,0-.19-.13-.26-.3-.17-.03.01-.06.01-.09.02-.11,0-.22,0-.33,0-.17.01-.33-.05-.49-.09-.28-.09-.58-.19-.89-.09-.03.01-.08,0-.12,0-.22-.03-.45-.07-.67-.1-.13-.02-.26-.05-.39-.07-.16-.02-.32-.05-.49-.07-.12-.01-.25,0-.37-.02-.18-.02-.36-.06-.53-.09-.03,0-.06,0-.08.01-.11,0-.23.02-.34.02-.13,0-.26-.02-.38-.03-.27,0-.53,0-.8-.01-.3-.02-.61-.09-.91-.1-.25,0-.45-.12-.67-.22-.07-.03-.15-.05-.22-.06-.35-.04-.7-.07-1.04-.13-.17-.03-.33-.11-.48-.19-.2-.12-.22-.24-.11-.44.04-.08.1-.17.09-.24-.02-.26.09-.5.15-.74.07-.32.14-.65.19-.97.01-.08-.03-.16-.04-.24-.01-.07-.03-.13-.03-.2.04-.3.1-.6.12-.91.01-.19.11-.31.26-.39.11-.06.23-.11.35-.12.21,0,.38-.18.59-.11,0,0,.02,0,.02,0,.18-.1.37-.13.57-.14.2-.01.4,0,.59.06.13.04.26.05.39.06.03,0,.06,0,.09,0,.1-.02.2-.04.3-.07.09-.03.16,0,.23.06.15.14.33.2.54.18.16-.02.32,0,.47.09.1.06.16.03.22-.06.06-.08.11-.18.19-.23.25-.15.3-.37.23-.64-.01-.04-.04-.08-.08-.11-.21-.16-.42-.31-.62-.47-.24-.2-.5-.36-.82-.4-.07,0-.15-.04-.22-.06-.08-.02-.16-.05-.24-.07-.21-.05-.38.1-.57.12-.17.02-.33.09-.49.15-.04.01-.08.05-.11.09-.1.17-.27.21-.45.22-.08,0-.17.01-.25.03-.11.02-.21.06-.31.06-.1,0-.18.02-.2.15-.05,0-.1,0-.15,0-.1,0-.21,0-.31,0-.2-.02-.27-.08-.31-.27-.02-.11-.04-.22-.04-.34,0-.23.03-.47,0-.7-.02-.22.02-.39.21-.52.02-.02.04-.04.06-.06.15-.14.32-.2.54-.21.22,0,.43-.06.65-.1.02,0,.05-.02.07-.02.13-.05.22-.03.28.1.04.09.1.1.18.09.23-.03.47-.04.69-.1.24-.06.37-.28.51-.48.01-.02,0-.06,0-.08.01-.18.02-.35.03-.53,0-.07,0-.11-.07-.13-.13-.03-.2-.12-.27-.23-.04-.06-.08-.12-.14-.14-.12-.04-.25-.07-.38-.09-.52-.06-.98.1-1.38.42-.08.06-.15.1-.25.09-.05,0-.1.01-.15.03-.15.07-.3.15-.45.22-.03.01-.11-.03-.12-.06-.07-.25-.13-.49-.18-.74-.02-.11-.03-.22-.04-.33,0-.03,0-.08.02-.09.21-.11.4-.26.65-.27.22-.01.44-.08.63-.22.02-.02.07-.02.09,0,.09.07.18.06.27.01.09-.04.14-.03.21.04.11.12.16.12.29.02.1-.07.19-.16.3-.23.2-.12.33-.28.36-.51.03-.21,0-.41-.13-.59-.05-.07-.09-.14-.14-.21-.07-.09-.07-.18-.04-.28.04-.11.06-.23.09-.35.05-.21.09-.42.15-.62.05-.16.18-.23.35-.24.09,0,.18-.06.28-.09.09-.03.17-.08.26-.08.17,0,.34.03.51.02.22,0,.44-.05.67-.02.16.02.32-.02.48-.05.07-.01.14-.03.19-.08.12-.1.23-.22.34-.34.04-.05.1-.11.1-.17.01-.14,0-.29,0-.44,0-.09-.05-.15-.14-.19-.11-.05-.22-.11-.33-.18-.09-.05-.16-.11-.27-.05-.03.02-.09,0-.13,0-.44-.05-.88-.08-1.3.08-.04.01-.08.01-.15.03.03-.09.04-.17.07-.22.13-.19.21-.39.25-.61.02-.1.05-.19.08-.3-.05-.13-.1-.29-.16-.44-.02-.05-.04-.11-.08-.13-.24-.18-.51-.32-.82-.37-.06-.01-.13-.04-.18-.08-.07-.06-.13-.12-.24-.12-.06,0-.14-.04-.18-.09-.16-.16-.37-.18-.56-.14-.24.05-.48.15-.64.37-.12.17-.26.27-.49.25-.16-.01-.32.06-.49.07-.36.02-.28.06-.44-.25-.02-.05-.04-.1-.07-.14-.06-.09-.09-.18,0-.28.03-.03.03-.1.03-.15,0-.16,0-.32-.03-.47-.08-.35-.18-.69-.27-1.04,0-.02-.02-.05-.04-.05-.11,0-.1-.1-.13-.17-.02-.07-.05-.14-.08-.2-.08-.13-.41-.16-.5-.04-.07.1-.15.12-.25.15-.22.05-.27.09-.29.32-.03.31-.08.62-.16.93-.02.06.02.17.07.22.09.08.1.16.08.27,0,.04,0,.09,0,.13.02.24-.07.45-.19.65-.08.15-.19.21-.36.19-.19-.02-.37-.06-.57,0-.3.09-.49.25-.54.56-.03.14-.06.29.11.38.03.01.04.06.06.09.04.11.08.23.11.35.07.29.35.52.65.52.15,0,.3,0,.45,0,.06,0,.14.03.18.08.06.08.12.18.13.28.03.36.11.71.04,1.07-.03.15-.16.3-.32.3-.09,0-.21-.04-.27,0-.1.07-.2.04-.3.06-.07.02-.14.05-.21.06-.04,0-.09,0-.14,0-.1-.02-.19-.05-.29-.05-.28,0-.56.02-.84.02-.27,0-.27,0-.3-.27-.03-.27-.19-.47-.37-.64-.03-.03-.09-.04-.13-.04-.18,0-.38-.05-.53.1-.02.02-.05.02-.08.03-.22.07-.45.16-.68.21-.19.04-.22.17-.27.31-.02.06-.04.14-.08.19-.27.29-.55.57-.94.72-.14.05-.26.12-.39.19-.26.13-.52.17-.62-.22-.01-.04-.06-.11-.07-.11-.09.02-.19.04-.26.09-.04.03-.05.12-.05.18,0,.08.03.15.05.22.05.16-.03.27-.13.38-.03.03-.1.05-.13.04-.2-.09-.45-.08-.61-.26-.01-.01-.04-.02-.07-.02-.21,0-.41,0-.62.03-.35.04-.7.11-1.05.16-.16.02-.27.1-.35.24-.02.04-.05.08-.08.1-.21.11-.37.32-.64.32-.01,0-.02,0-.03.01-.12.06-.23.14-.36.19-.36.13-.71.3-1.1.23-.02,0-.04,0-.06.02-.13.04-.25.09-.38.13-.17.06-.34.06-.53.03,0-.04,0-.07.02-.09.14-.22.29-.43.44-.65.18-.26.37-.52.54-.78.07-.11.13-.22.3-.24-.09-.17.02-.27.1-.39.03-.04.06-.09.08-.13.03-.05.04-.11.08-.15.3-.27.52-.6.66-.97.09-.24.24-.43.38-.63.05-.07.08-.07.13,0,.1.12.23.2.4.18.03,0,.08,0,.11.03.26.26.55.22.79.06.26-.17.53-.31.85-.31.05,0,.1-.01.14-.02.28-.06.56-.09.83.07.04.02.11.03.15.01.22-.12.46-.14.71-.12.29.02.52-.09.72-.29.17-.17.18-.18.09-.4-.05-.13-.08-.27-.17-.37-.15-.18-.32-.33-.55-.41-.09-.03-.16-.09-.24-.14-.14-.08-.28-.17-.43-.24-.12-.06-.25-.09-.37-.15-.15-.06-.3-.06-.45-.01-.27.08-.54.16-.81.23-.16.04-.21-.01-.16-.17.06-.22.09-.44-.08-.63-.02-.02-.02-.04-.03-.07-.04-.16-.08-.32-.1-.48-.02-.13,0-.26-.03-.38-.02-.15-.08-.29-.1-.43-.05-.26-.18-.47-.39-.63-.08-.06-.15-.12-.22-.19-.2-.2-.46-.26-.72-.32-.02,0-.05,0-.07,0-.16.08-.33.15-.49.23-.11.06-.22.13-.32.2-.05.03-.1.08-.12.13-.13.39-.2.78-.1,1.19.05.23.02.48.15.7.16.27.08.54-.05.79-.09.17-.15.34-.16.53,0,.1-.02.19-.05.28-.05.14-.19.24-.16.41,0,0-.01.02-.02.03-.25.34-.41.73-.52,1.14-.03.09-.08.17-.12.26-.09.19-.2.38-.28.58-.12.31-.25.61-.48.86-.05.05-.09.12-.12.19-.13.24-.24.49-.4.72-.3.44-.62.87-.93,1.31-.03.04-.05.09-.08.13-.2.28-.4.57-.62.85-.14.19-.3.37-.46.54-.18.2-.36.4-.55.59-.09.1-.19.2-.28.3-.26.33-.55.63-.89.88-.03.03-.06.06-.09.1-.09.09-.18.19-.27.28-.08.08-.18.14-.27.21-.1.07-.21.14-.32.21-.04.03-.07.07-.1.11-.04.05-.06.1-.11.14-.05.05-.12.07-.16.12-.17.21-.4.31-.64.42-.09.04-.18.11-.26.17-.06.05-.05.17.01.24.07.07.1,0,.15-.03.04-.02.08-.03.13-.03.07,0,.15,0,.21-.02.22-.08.43-.19.64-.27.24-.09.5-.14.7-.33.12-.12.27-.21.39-.33.1-.1.2-.18.33-.22.07-.02.13-.07.18-.11.18-.16.36-.33.54-.49.11-.1.28-.16.34-.28.13-.24.34-.38.54-.54.26-.22.47-.48.66-.76.16-.24.31-.49.48-.73.1-.14.21-.26.34-.37.09-.07.16-.15.22-.25.08-.13.19-.25.3-.36.03-.03.1-.05.14-.03.09.03.16.1.25.13.2.05.27.21.32.38.05.2.17.34.32.45.2.15.33.33.39.57.02.07.03.15.05.22.02.06.03.14.07.18.18.16.26.36.32.58.01.04.04.09.03.13-.07.2-.13.43-.35.53-.22.09-.38.3-.64.3-.03,0-.07.04-.1.06-.06.05-.1.11-.17.16-.06.05-.14.1-.21.12-.23.06-.43.17-.61.32-.04.03-.09.05-.14.07-.15.04-.3.08-.46.11-.08.02-.16.03-.24.05-.05.01-.1.04-.15.07-.02.01-.04.04-.07.05-.16.03-.33.06-.49.09-.16.03-.32.06-.48.09-.09.02-.12.08-.12.17,0,.16.05.29.15.42.23.3.48.57.81.75.13.07.24.19.35.29.05.05.09.12.15.15.1.05.24.14.33.1.33-.14.69-.26.89-.61.01-.02.03-.03.05-.05.09-.11.18-.22.27-.32.06-.07.11-.14.18-.19.17-.13.36-.24.54-.37.16-.12.33-.2.53-.23.23-.04.26-.02.26.22,0,.23,0,.47,0,.7,0,.09.02.17.03.26.01.07.04.15.03.22-.01.1-.04.2-.08.29-.07.19-.07.38.01.57.05.11.06.21.02.31-.03.1-.07.2-.09.3-.03.14-.08.28-.08.41,0,.11-.01.21-.04.3l-.14-.66c0-.09-.03-.17-.02-.26,0-.09,0-.18-.06-.27-.01-.02-.02-.04-.02-.06,0-.07,0-.12-.11-.15,0,0-.01-.01-.02-.02-.06-.05-.11-.09-.17-.14-.07-.05-.15-.1-.23-.16-.01,0-.03-.01-.05-.01-.09.02-.19-.01-.28-.03-.03,0-.07,0-.1,0-.08.02-.16.05-.25.05-.14,0-.25.03-.34.1-.04.03-.09.04-.14.05-.15.03-.22.1-.2.23.04.2.2.35.42.46.07.04.13.07.18.13.08.09.16.17.28.22.08.04.14.09.18.16.01.02.03.04.06.06.06.05.11.1.17.15.02.01.03.03.05.03.15.05.24.15.31.27.07.11.14.22.22.33-.02.04-.04.07-.06.11,0,.02-.03.03-.05.04-.17.07-.34.15-.52.19-.2.04-.36.12-.51.26-.03.03-.06.06-.1.07-.14.03-.24.08-.22.25,0,.01-.01.03-.02.04-.05.11-.1.22-.14.34-.05.15-.09.3-.13.45,0,.02,0,.06.01.08.12.13.13.29.17.45.02.05.06.1.1.15.11.12.25.22.32.35.11.22.28.36.49.47.09.05.17.11.23.18.18.21.39.27.64.16.4-.18.56-.52.61-.93.02-.13.03-.25.11-.36.12-.17.22-.35.23-.57,0-.15.08-.27.19-.37.04-.03.06-.08.09-.12.06-.12.11-.24.16-.36.01-.03.03-.07.03-.1-.01-.27.12-.46.29-.64.25-.26.49-.51.74-.77.12-.12.24-.24.22-.44,0-.03.01-.06.03-.08.1-.18.21-.35.39-.47.06-.04.12-.1.15-.17.04-.09.09-.16.19-.18.04,0,.07-.05.09-.09.07-.14.14-.29.21-.44.03-.06.05-.12.07-.19.01-.03.02-.06.03-.1l-.03-.02s0,0,0,0c-.72.73-1.48,1.42-2.3,2.05-.08-.09-.13-.21-.15-.35-.04-.34.07-.67.07-1.02,0-.35.11-.7.1-1.05,0-.12.03-.25.05-.37.02-.18.05-.37.07-.55.02-.2.05-.38.19-.54.01-.02.02-.04.02-.07-.02-.19.09-.31.24-.39.13-.07.27-.13.41-.16.21-.04.37-.21.59-.21.56-.34.77-.68.74-1.24-.01-.22-.07-.42-.34-.48-.22-.05-.45-.1-.66-.19-.18-.08-.33-.06-.49.03-.09.05-.18.04-.26-.03-.1-.09-.18-.2-.28-.3-.06-.06-.12-.12-.19-.15-.12-.06-.25-.08-.37-.14-.06-.03-.16-.1-.15-.14,0-.06.07-.13.13-.19.04-.04.11-.07.16-.1.22-.11.43-.23.65-.34.09-.04.2-.08.3-.09.17-.02.34-.06.48-.17.07-.05.16-.06.25-.07.12-.03.25-.02.35-.07.08-.04.16-.06.24-.08.16-.03.34-.04.41-.24.01-.03.06-.05.1-.07.2-.1.34-.25.38-.48.01-.06.06-.11.09-.17.06.04.13.08.19.13.03.02.04.06.05.1.08.21.2.35.43.4.1.02.19.08.29.12.03.01.05.04.07.03.15-.03.3-.04.44-.09.17-.06.32-.16.48-.24.07.14.08.27.01.43-.09.21-.16.44-.23.66-.09.3-.2.58-.43.8-.2.19-.27.45-.35.71-.02.05,0,.1,0,.16,0,.1.02.2,0,.29-.05.24-.09.47-.04.72,0,.03-.02.07-.02.11,0,.04,0,.1.03.13.07.08.15.15.24.23.16.14.32.13.46-.03.07-.08.16-.14.25-.21.02-.02.04-.04.05-.07.06-.14.11-.28.17-.41.02-.05.07-.09.12-.11.09-.05.18-.08.28-.12.17-.06.37.12.34.3-.02.16-.03.32-.04.48,0,.1-.01.2.1.25.02,0,.02.05.02.07.02.16.04.32.07.47,0,.03,0,.06,0,.1-.01.16-.03.33-.04.49,0,.04,0,.07,0,.11-.03.1-.06.2-.09.29-.04.13-.06.26-.12.38-.07.14-.17.26-.28.38-.11.12-.44.08-.62-.04-.08-.06-.12-.13-.13-.23,0-.06-.04-.13-.09-.17-.24-.22-.48-.43-.78-.56-.07-.03-.12-.07-.19-.11-.08-.04-.17-.09-.26-.13-.14-.06-.28-.12-.42-.17-.07-.03-.14-.07-.22-.09-.19-.06-.38-.11-.56-.17-.16-.05-.32-.11-.47-.19-.21-.1-.38-.02-.56.08-.12.07-.14.13-.1.26.12.02.24.02.34.07.28.12.54.26.81.4.03.02.05.06.06.1.02.08.07.12.15.15.05.02.12.07.14.12.04.1.11.16.22.19.1.02.17.08.2.19,0,.03.05.06.07.06.08,0,.12.04.15.11.03.06.08.1.13.14.13.11.26.2.38.32.08.08.16.18.21.29.1.2.22.37.44.46.07.03.13.08.19.12.03.03.07.08.06.11-.04.15.04.27.09.39.04.09.04.17-.01.25-.14.22-.27.44-.4.66-.13.21-.39.33-.41.61,0,0,0,0,0,.01-.19.2-.35.42-.56.6-.27.23-.56.43-.84.65-.32.24-.63.5-.97.72-.25.17-.49.37-.79.45-.11.03-.15.16-.08.26.04.06.08.11.12.17.09.15.2.16.34.05.07-.06.17-.12.25-.12.12,0,.21-.03.3-.1.04-.03.1-.06.15-.08.24-.11.49-.21.73-.31.06-.02.13-.02.2-.04.05-.01.1-.03.14-.06.13-.1.26-.21.39-.32.08-.07.17-.12.25-.19.14-.13.27-.28.42-.42.12-.11.22-.21.3-.35.14-.24.3-.47.55-.64.19-.13.34-.3.44-.52.1-.23.3-.25.47-.08.11.12.21.23.39.25.03,0,.05.04.07.06.13.14.26.29.39.43.14.14.29.26.49.3.19.04.34.14.47.27.07.06.16.11.24.15.16.09.32.18.48.27.01,0,.02.02.03.03.22.2.44.39.71.53.24.12.47.25.71.37.12.06.25.11.37.17.33.18.65.4,1,.56.55.24,1.07.53,1.66.67.34.09.66.29.99.45.03.01.05.05.07.08.04.04.07.08.12.1.09.05.18.1.27.14.07.03.15.06.22.07.15.02.31.02.47.05.26.05.45-.04.58-.28.03-.06.09-.13.15-.16.16-.07.33-.12.5-.18.03-.01.07-.02.09-.04.07-.08.16-.08.26-.07.08.01.14,0,.2-.08.04-.05.12-.08.18-.1.13-.03.27-.02.39-.05.33-.08.65-.16.99-.14.08,0,.17-.06.25-.09.02,0,.03-.02.05-.03.19-.03.39-.09.58-.09.31,0,.59-.12.87-.23.06-.02.12-.05.18-.05.2-.03.39-.09.57-.19.16-.09.35-.14.52-.21.09-.04.19-.06.28-.11.14-.09.17-.21.13-.36Zm-10.53-1.85c-.14-.02-.29-.05-.42-.1-.37-.14-.79-.17-1.11-.45-.08-.07-.19-.13-.3-.16-.42-.11-.78-.34-1.17-.51-.35-.15-.66-.38-.99-.57-.01,0-.03-.02-.04-.03-.15-.22-.31-.44-.46-.67-.03-.05-.02-.14,0-.2.02-.11.06-.21.1-.31.08-.2.16-.4.24-.6.07-.16.13-.32.12-.5,0-.06.04-.12.05-.19.03-.25.05-.51.1-.76.05-.26-.03-.54.11-.79.03-.06,0-.11-.03-.18-.09-.18-.17-.38-.23-.57-.02-.07.01-.16.01-.24,0-.06,0-.11-.02-.17-.07-.22.05-.52.25-.65.12-.08.21-.19.32-.29,0,0,.01-.02.01-.03,0-.19-.01-.37-.03-.56,0-.04-.04-.08-.07-.12-.15-.18-.34-.26-.57-.24-.1,0-.2.03-.3.05-.1.02-.21.06-.31.04-.25-.05-.49-.03-.71.11-.01,0-.03,0-.04-.01,0-.05,0-.1,0-.14.07-.27.15-.54.23-.81.02-.06.05-.11.08-.16.05-.08.09-.17.14-.25,0,0,0-.02,0-.02.16-.16.23-.37.34-.56.06-.11.16-.21.23-.32.1-.16.21-.29.36-.4.08-.06.14-.16.22-.25.07.09.16.18.2.29.11.29.27.53.47.75.12.14.3.22.47.31.11.06.22,0,.33-.05.09-.05.19-.08.28-.14.08-.05.15-.11.2-.18.16-.24.32-.48.58-.64.17-.11.37-.14.56-.17.03,0,.08.04.11.07.14.19.14.42.12.64-.02.24-.1.47-.16.7-.02.09-.09.14-.18.17-.14.05-.28.11-.43.16-.09.03-.19.05-.29.07-.02,0-.05,0-.06,0-.19.14-.38.02-.57.01-.11,0-.22-.01-.33,0-.09,0-.15.06-.14.15.02.16.03.33.08.49.11.34.37.56.69.66.3.1.6.02.84-.21.08-.08.18-.13.27-.19.01,0,.03.02.04.02,0,.1,0,.2,0,.3,0,.08,0,.14.06.19.08.06.1.15.08.25-.01.08-.01.17,0,.25.02.27-.13.45-.4.46-.19,0-.39,0-.58-.02-.1-.01-.18-.01-.28,0-.17.03-.34.02-.52.02-.11,0-.22,0-.31.09-.17.18-.17.25-.03.45.04.06.09.13.09.2.05.47.28.81.7,1.03.18.09.44.05.58-.09.25-.26.49-.52.81-.7.15-.08.19-.07.22.09.04.27.06.54.09.8,0,.08,0,.17.02.25.01.09-.02.16-.08.23-.05.06-.08.15-.08.23,0,.1-.02.15-.13.18-.31.09-.61.19-.91.28-.17.05-.34.11-.51.13-.16.01-.33-.02-.5-.05-.09-.02-.16-.05-.21.06-.02.03-.08.05-.12.06-.15.03-.29.04-.44.07-.3.05-.36.23-.31.53.06.34.18.67.38.96.05.07.11.13.17.2.05.06.12.1.16.17.11.19.3.25.49.31.05.01.12,0,.17-.03.18-.11.36-.23.53-.36.08-.06.13-.16.2-.25.01-.02.02-.04.04-.06.23-.19.46-.39.7-.57.11-.08.24-.13.36-.19.08-.03.27.13.28.23.04.51.09,1.02.13,1.53,0,.12-.02.24.02.35.1.29.05.59.1.88,0,.03,0,.06,0,.08,0,.15-.01.17-.16.15Zm2.05-11.18c-.02.19-.1.28-.28.36-.23.1-.45.2-.69.23-.16.02-.16.01-.16-.15,0,0,0-.02,0-.02-.09-.3-.03-.62-.04-.92-.01-.4.12-.56.51-.67.18-.05.35-.11.52-.18.22-.09.22-.09.23.15,0,.09,0,.19.01.31.05.28-.06.58-.09.89Zm-1.29-2.77c.08-.11.12-.24.07-.39-.01-.04.02-.11.05-.16.04-.07.12-.11.13-.18.07-.24.27-.33.44-.46.08-.06.16-.12.24-.18.11-.07.22-.13.34-.18.04-.02.1,0,.15,0,.05.01.11.04.16.05.22.05.35.2.36.43,0,.13.04.28-.06.4,0,.01,0,.03,0,.05-.03.25-.05.5-.08.75-.02.19-.1.32-.31.38-.18.05-.35.16-.53.22-.26.08-.52.13-.79.19-.06-.16-.08-.33-.16-.45-.11-.17-.13-.31,0-.47Z"/>
      <path class="cls-1" d="m11.21,67.35c-.03-.06-.08-.1-.1-.17-.04-.1-.09-.17-.16-.22-.03-.02-.05-.05-.07-.09-.06-.1-.12-.13-.2-.07-.12.09-.16.26-.17.46,0,.06,0,.12-.03.18-.03.08-.06.17-.06.28,0,.07-.02.13-.05.18-.01.02-.02.04-.02.06-.02.06-.03.12-.04.18,0,.02,0,.03,0,.05,0,.13-.03.23-.08.32-.07.13-.14.26-.21.38-.03.06-.07.12-.06.22,0,.01,0,.03,0,.04-.03.09-.06.17-.11.23-.02.02-.03.05-.04.08-.01.04-.02.08-.05.09-.01,0-.02.03-.03.04-.02.07-.04.14-.05.22,0,.03-.01.06-.02.09,0,.02,0,.03,0,.05,0,0,0,0,0,0,0,0,0,0,0,0,.2-.37.42-.71.66-1.03l.52-.44s0-.02.01-.02c.05-.03.1-.08.15-.1.06-.02.11-.06.15-.13,0-.01.02-.03.03-.03.04-.01.07-.04.06-.13,0,0,0-.01,0-.02.01-.06.03-.11.04-.17.01-.07.02-.15.03-.22,0-.01,0-.03,0-.04-.04-.06-.04-.14-.06-.22,0-.03-.02-.05-.03-.07Z"/>
    </g>
  </g>
  <path class="cls-1" d="m62.61,34.82l9.74,7.25,27.73-11.83-5.64.92v-2.26l-5.26.53-.38-2.81-1.89,1.39-.43.12-.87.24-2.23.62-.17-1.12-3.42.79-.46-1.36-10.16,7.85-4.44-1.1-.7-.17-1.42-.35-2.9,1.25-1.44.6c-.19-.47-.15-.88.85-1.04.12-.02.26-.2.32-.33.59-1.39,1.14-2.79,1.76-4.17.24-.53.5-1.14.94-1.46,3.54-2.63,7.24-5.07,10.67-7.83,3.62-2.91,7.22-5.9,9.96-9.73.91-1.28.65-2.03-.87-2.31-4.15-.78-8.3-1.53-12.45-2.3C58.51,4.19,47.56,2.21,36.64.13c-1.66-.32-2.73-.11-3.98,1.25C22.18,12.86,11.59,24.23,1.04,35.63c-1.5,1.62-1.27,2.67.89,3.11,4.02.81,8.04,1.64,12.11,2.12,6.82.8,13.63.39,20.34-1.15.36-.08,1.02-.04,1.13.16.14.27.32.5.49.74l-.58.28-1.65.64.34,2.36-1.12,4.19,10.87,2.29,12.46-1.86,8.59-5.51-1.71-2.69v-1.32l-.79-.32-.5-3.08-3.27.52c-.11-.21-.24-.43-.33-.63l3.08-.47,1.22-.19Zm5.06,1.06l1.97.75,16.34-8.13.83-.41-14.84,10.94-8.95-4.91,4.65,1.76Zm-8.07-8.8L36.91,4.15l25.29,15.21,4.92,2.79s-6.27,4.93-7.52,4.93Zm-15.54-2.01c.51-.25,1.02-.51,1.53-.76.06-.03.12-.07.19-.1.03.04.05.06.06.09.4.66.8,1.32,1.2,1.99.09.15.09.18-.07.26-.63.32-1.27.64-1.91.95-.45.22-.91.42-1.36.63-.1.05-.15.02-.2-.07-.36-.7-.73-1.4-1.1-2.1-.03-.06-.05-.1.03-.13.54-.25,1.08-.49,1.61-.75Zm-1.03-3.48c.22-.11.44-.21.65-.33.74-.4,1.49-.81,2.23-1.22.05-.02.09-.05.15-.08.15.25.28.48.43.71.26.41.52.83.78,1.24.1.17.1.21-.08.3-.81.44-1.63.89-2.45,1.33-.19.1-.38.2-.57.29-.14.07-.16.07-.24-.07-.3-.56-.6-1.13-.9-1.7-.03-.06-.06-.12-.1-.18-.09-.18-.09-.2.09-.29Zm3.45,6.37c1.13-.57,2.27-1.13,3.4-1.7.08-.04.12-.03.17.04.46.59.92,1.17,1.38,1.76q.1.13-.05.21c-.85.48-1.7.96-2.56,1.43-.33.18-.67.35-1.03.54-.47-.75-.92-1.48-1.39-2.22.03-.02.05-.04.07-.05Zm6.53,4.49s.52,1.75-.13,2.49c-.64.74-5.81.64-5.81.64,2.52-.97,5.94-3.13,5.94-3.13Zm-13.71-6.48c-.15.06-.3.11-.45.17-.09.03-.15,0-.19-.09-.28-.68-.56-1.35-.85-2.03-.05-.11-.01-.17.1-.21.4-.15.79-.3,1.19-.46.62-.25,1.23-.52,1.84-.78.08-.03.16-.06.26-.1.03.03.07.06.09.1.33.67.67,1.34,1,2.01.05.11,0,.14-.09.18-.97.4-1.93.8-2.9,1.21Zm2.4,3c-1.01.38-2.03.76-3.05,1.14-.15.06-.31.11-.47.16-.12,0-.15-.09-.18-.17-.11-.27-.22-.54-.33-.8-.17-.42-.34-.84-.51-1.27-.06-.16-.06-.16.11-.22,1.09-.4,2.19-.8,3.28-1.21.1-.04.14-.03.19.07.34.68.69,1.36,1.04,2.03.09.17.09.19-.09.25Zm30.72-19.14l6.73,1.36s-3.78,5.43-7.45,7.86l-2.01-1L36.16,2.65l36.27,7.2Zm-39.71,15.62c.49-.14.98-.27,1.47-.41.59-.18,1.17-.37,1.76-.55.22-.07.22-.06.3.15.26.68.52,1.36.78,2.04.03.07.03.11-.05.14-1.16.34-2.31.69-3.47,1.03-.05.01-.09.02-.14.03-.1,0-.15-.07-.17-.15-.1-.34-.21-.68-.31-1.02-.1-.33-.21-.67-.31-1-.05-.17-.04-.2.15-.25Zm-.84,3.89c1.11-.29,2.22-.58,3.33-.87.17-.04.17-.04.23.11.29.76.57,1.51.86,2.29-.15.04-.29.08-.43.12-1.11.29-2.22.58-3.33.87-.17.04-.18.04-.23-.12-.21-.66-.42-1.33-.63-1.99,0-.02,0-.03-.01-.05-.06-.24-.02-.3.21-.36Zm-4.66-2.74c1.08-.2,2.17-.4,3.25-.61.33-.06.35-.06.44.26.18.65.36,1.3.54,1.94.03.11.02.16-.11.18-.9.17-1.79.36-2.68.54-.32.06-.64.1-.99.16-.02-.02-.05-.05-.06-.09-.16-.75-.32-1.5-.48-2.26-.02-.09,0-.12.09-.13Zm-1.14,3.78c.26-.04.51-.06.77-.1.91-.15,1.82-.3,2.72-.46.13-.02.16.02.2.13.21.74.42,1.48.63,2.22.04.13.03.16-.11.19-.26.05-.51.1-.77.15-.9.15-1.79.29-2.69.43-.08.01-.16.02-.22.02-.17,0-.21-.04-.25-.22-.12-.57-.25-1.13-.37-1.7-.03-.13-.06-.26-.08-.39-.04-.18,0-.25.19-.27Zm-4.59-3.18c.57-.04,1.14-.07,1.71-.12.56-.05,1.11-.11,1.67-.16.08,0,.16-.01.24-.01.18,0,.23.05.27.23.05.3.1.6.16.9.07.36.15.73.23,1.09.04.18,0,.23-.18.25-.22.03-.45.05-.67.07-.67.06-1.34.13-2.02.19-.31.03-.62.04-.93.07-.38.03-.39.03-.43-.34-.08-.64-.16-1.28-.23-1.92-.02-.2,0-.23.2-.24Zm-1.47,3.66c.12-.02.25-.02.37-.03.84-.05,1.69-.09,2.53-.14.31-.02.62-.05.93-.07.05,0,.09,0,.14,0,.14.74.28,1.47.43,2.2.01.07.02.14.05.21.04.11-.01.15-.11.15-.61.05-1.22.1-1.84.15-.49.03-.98.06-1.48.08-.25.01-.49.03-.74.03-.2,0-.24-.03-.27-.23-.06-.46-.12-.93-.18-1.39-.03-.23-.06-.46-.08-.68-.02-.19.05-.28.24-.3Zm-4.49-3.65c1.24.08,2.49.07,3.74.07.3,0,.3,0,.33.3.07.68.14,1.36.21,2.04.01.1-.01.16-.12.17-.06,0-.13.02-.19.02-.44,0-.87,0-1.48,0-.65-.01-1.48-.03-2.31-.05-.06,0-.11-.01-.17-.02-.08-.01-.11-.06-.11-.14-.02-.74-.05-1.48-.07-2.22,0-.14.03-.18.18-.17Zm-2.19,9.8c-.91-.08-1.81-.17-2.72-.26-.43-.04-.86-.1-1.29-.15-.19-.02-.19-.02-.19-.21,0-.76,0-1.52,0-2.27,0-.02,0-.05,0-.09.23.03.45.06.67.09.76.09,1.52.18,2.28.26.47.05.93.08,1.4.12.1,0,.14.05.15.15.02.33.04.66.06.99.03.42.06.84.1,1.27,0,.04,0,.09,0,.14-.16,0-.31-.01-.46-.03Zm.62-3.66c-.24-.01-.27-.04-.28-.28-.03-.68-.05-1.37-.08-2.05,0-.18,0-.2.19-.19.42.02.84.05,1.26.07.82.03,1.64.05,2.46.07.09,0,.18,0,.27.02.19.02.21.05.23.24.02.25.04.51.07.76.05.44.1.88.14,1.32,0,.06,0,.12.01.19-.32,0-.63,0-.93,0-.63-.02-1.27-.04-1.9-.07-.48-.02-.96-.05-1.44-.07Zm20.87,1.76c-1.57.4-3.15.76-4.75,1.03-1.27.21-2.54.41-3.81.57-1.17.14-2.34.23-3.52.33-.66.05-1.32.08-1.99.11-.51.02-1.03.03-1.54.04-.79,0-1.59,0-2.38,0-.22,0-.44,0-.65-.02-.16-.01-.21-.06-.19-.19.06-.78-.07-1.55-.14-2.32.27,0,.53,0,.79,0,.4,0,.8.02,1.2.02.88,0,1.77,0,2.65-.03,1.05-.04,2.1-.1,3.15-.19.95-.08,1.9-.17,2.85-.3,1.33-.19,2.66-.4,3.98-.64,1.6-.29,3.18-.67,4.74-1.1,1.69-.47,3.37-1,5.01-1.61,1.46-.54,2.9-1.13,4.31-1.78.07-.03.09-.01.13.05.37.65.75,1.3,1.13,1.95.09.15.09.15-.06.22-1.68.78-3.4,1.48-5.14,2.11-1.9.68-3.82,1.27-5.77,1.78Zm-.72,6.64l1.41-.63.53-.25.59,1.27-2.52-.39Zm4.64,2.34l-3.47-1.14,3.15.24,6.05,1.24-5.73-.35Zm22.61-8.08l-1,1.79-1-1.44,2-.35Zm.29,1.46l.15,1.54-4.07,3.67,4.41-3.15.67.12-7.17,6.03-11.36,1.63,11.27-3.18,6.11-6.65Z"/>
</svg>