<?xml version="1.0" encoding="UTF-8"?>
<svg id="_圖層_1" data-name="圖層 1" xmlns="http://www.w3.org/2000/svg" viewBox="0 0 190 37.11">
  <defs>
    <style>
      .cls-1 {
        fill: #040000;
      }
    </style>
  </defs>
  <g>
    <g>
      <path class="cls-1" d="m183.33,31.94c0-.2-.02-.33-.2-.34-.21-.01-.07.25-.19.3,0,0-.03-.01-.04-.03q-.14-.15-.28,0c-.16.17-.35.21-.55.24-.1.01-.21-.08-.32-.11-.21-.06-.43-.11-.65-.17-.03,0-.08-.01-.1-.04-.12-.2-.34-.15-.48-.29-.07-.07-.14-.02-.2.02-.06.05-.1.04-.15-.04-.02-.04-.06-.08-.09-.11-.12-.08-.22-.18-.21-.37-.11,0-.22.02-.31,0-.16-.05,0-.21-.06-.32h-.2c.02-.16-.04-.25-.16-.31,0,0-.02-.02-.02-.03-.09-.32-.35-.42-.55-.61-.13-.13-.28-.24-.34-.45,0-.03-.05-.07-.08-.07-.21-.05-.3-.25-.39-.45-.09-.2-.19-.4-.3-.59-.04-.06-.11-.1-.16-.15-.06-.07-.14-.13-.17-.21-.03-.09-.07-.13-.14-.14-.14-.02-.25-.07-.24-.27,0-.04-.03-.08-.06-.11-.12-.12-.15-.34-.32-.41-.05-.02-.08-.16-.1-.26-.02-.1-.06-.14-.13-.13-.11.01-.17-.04-.21-.16-.03-.07-.11-.11-.16-.16-.05-.05-.13-.09-.15-.15-.04-.09-.09-.13-.16-.13-.09,0-.1-.05-.07-.15.06-.2.06-.21-.12-.21-.09,0-.15-.04-.15-.16,0-.07-.01-.14-.02-.23-.18.04-.32-.05-.4-.23-.07-.17-.2-.23-.32-.32-.19-.15-.36-.33-.54-.5-.03-.03-.05-.08-.07-.12-.12-.18-.25-.36-.37-.54,0-.01-.03-.02-.04-.02.1-.16.07-.32-.04-.46-.08-.1-.13-.21-.21-.31-.13-.17-.27-.32-.42-.48-.03-.03-.08-.02-.14-.03.19.25.34.49.37.82-.15-.04-.17-.1-.15-.25,0-.05-.01-.12-.04-.17-.05-.08-.12-.16-.19-.22-.07-.06-.15-.11-.23-.14-.07-.03-.15-.02-.22-.03-.13-.01-.19-.1-.17-.25.02-.2-.06-.29-.22-.25-.03,0-.05,0-.08,0,0-.03-.01-.05,0-.07.04-.13,0-.18-.11-.21-.05-.01-.07-.11-.11-.17-.05-.07-.12-.13-.16-.22-.06-.11-.13-.1-.22-.07-.04.01-.12-.01-.12-.04-.04-.14-.12-.15-.22-.14-.03,0-.07,0-.11,0,.02-.21-.13-.28-.21-.41-.04-.07-.09-.06-.13.02-.06.13-.15.14-.25.1-.15-.06-.29-.14-.4-.3-.12-.17-.42-.11-.49.1-.05.15-.14.2-.32.15-.14-.04-.24.02-.34.14-.08.1-.18.19-.26.29-.03.04-.06.09-.07.14-.06.18-.16.32-.3.43-.04-.07-.06-.14-.11-.17-.04-.03-.11-.02-.16-.03.01.05.02.1.03.15,0,.03.03.06.05.09,0,.01-.01.02-.02.03-.05-.02-.11-.03-.16-.05-.06-.02-.1-.01-.12.06-.03.11-.09.16-.19.16-.05,0-.1.03-.15.05,0,.02,0,.03,0,.05.07.01.14.02.2.04.04.02.07.06.1.09-.03.03-.07.1-.1.09-.14-.03-.22.08-.32.16-.11.09-.22.17-.34.26-.01-.02-.02-.03-.04-.05.03-.03.05-.06.08-.08.06-.04.14-.07.2-.11.03-.02.04-.08.06-.12-.04-.02-.09-.06-.12-.05-.12.07-.25.15-.36.24-.05.04-.07.1-.11.16-.01.02-.03.05-.05.05-.09.01-.15.06-.18.18,0,.04-.09.06-.14.06-.09,0-.13.05-.13.14,0,.08-.02.13-.1.15-.06.02-.1.08-.15.12,0,0-.01.01-.02.02-.15.12-.36.17-.36.45-.12.11-.24.22-.35.34-.11.12-.2.25-.31.37-.03.04-.08.07-.12.08-.12.03-.19.09-.26.24-.09.2-.23.37-.35.55-.02.03-.08.01-.12.02-.07.02-.14.03-.21.05v.05s.08.09.12.14c.06.09.05.13-.04.17-.21.08-.41.16-.61.25-.07.03-.12.1-.19.14-.07.03-.15.06-.22.05-.1,0-.17.03-.24.13-.06.08-.15.13-.23.19-.06.04-.14.07-.19.12-.2.21-.44.3-.68.4-.03.01-.08.02-.08.04-.05.16-.16.13-.26.13-.03,0-.07,0-.1,0-.07-.02-.13-.05-.21-.08-.03.14-.16.13-.26.13-.35,0-.58.25-.76.57-.14.25-.31.41-.57.45-.17.03-.34.1-.51.14-.21.05-.41.04-.59-.11-.17-.14-.16-.3,0-.44.09-.08.17-.18.25-.3-.08,0-.17,0-.25,0-.05,0-.1-.03-.14-.06-.04-.03-.08-.08-.09-.13,0-.03.05-.09.09-.11.12-.07.23-.14.23-.34,0-.13.22-.25.31-.16.1.1.19.15.32.06-.01.03-.03.07-.04.1-.01.03-.04.05-.05.07-.04.08-.03.27.02.31.08.06.15.02.22-.04.09-.07.19-.12.28-.18.11-.08.27-.14.32-.26.07-.17.05-.38.06-.58,0-.03-.07-.07-.1-.11.09-.14.18-.29.27-.43,0,0,0,0,0-.01.17-.05.22-.28.34-.36.24-.16.4-.41.6-.61.04-.04.06-.12.09-.18.03-.06.06-.15.09-.15.05,0,.12.04.15.09.05.09.1.08.15.01.12-.16.23-.31.34-.47.07-.11.14-.22.22-.33-.04-.07-.04-.06.04-.17.06-.08.09-.19.16-.26.04-.05.12-.09.18-.1.09-.02.12-.06.09-.17-.03-.1,0-.17.09-.2.01,0,.03-.02.04-.02.15-.03.26-.09.24-.31,0-.08.05-.07.11-.07.06,0,.13,0,.17-.03.14-.12.26-.26.4-.38.07-.06.14-.11.22-.17-.03-.02-.04-.03-.06-.05-.02-.03-.04-.07-.06-.11.03-.01.07-.02.1-.04.04-.02.09-.04.12-.09.06-.09.11-.18.15-.28.06-.15.15-.21.28-.22.06,0,.11-.04.16-.08.15-.13.29-.27.36-.48.01-.04.07-.08.11-.09.11-.03.18-.11.25-.22.06-.09.14-.17.21-.25.05-.06.1-.36.06-.46-.01-.03-.02-.06-.04-.1.07-.04.13-.07.19-.11.08-.05.12-.11.06-.21,0,0,0,0,0-.01-.09-.26-.09-.27.15-.27.02,0,.05,0,.07,0,.2-.05.42-.45.39-.72-.26.09-.26.42-.41.64-.05-.07-.08-.12-.13-.19.19-.1.26-.26.25-.49,0-.03.05-.08.08-.08.07,0,.14.03.22.06.1-.12.03-.25-.02-.42.1,0,.17,0,.25,0,.1,0,.17-.04.2-.17.02-.1.08-.19.11-.29.04-.13.08-.27.11-.4.01-.07-.02-.13-.09-.14-.05,0-.09-.03-.15-.05.07-.15.16-.23.28-.24.08,0,.12-.02.15-.12.04-.12.35-.27.48-.23-.17.15-.32.31-.48.44-.1.08-.11.18-.11.3,0,.08.02.15.03.24.12-.02.2-.07.25-.19.07-.13.15-.26.22-.39.08-.15.17-.29.26-.44.01-.02.02-.05.01-.06-.05-.24.13-.4.17-.61,0-.03.09-.05.17-.08,0-.01,0-.06,0-.1,0-.09.05-.13.11-.19.1-.1.18-.24.27-.37.01-.02.01-.07.03-.07.09-.04.19-.06.28-.12.09-.06.17-.12.26-.02.02.02.06.03.11.05-.18-.38-.08-.3.14-.36.08-.02.15-.08.22-.13.04-.03.06-.08.1-.12.06-.07.12-.09.19,0,.14.16.16.15.27-.04.08-.14.14-.29.13-.47,0-.02,0-.05.01-.07.15-.2.2-.46.27-.7.03-.11.09-.1.17-.06.11.06.16.03.2-.12-.02-.01-.03-.03-.05-.05-.07-.05-.07-.11,0-.17.13-.13.24-.29.43-.3.02,0,.05-.06.05-.1,0-.17.02-.33.17-.42.04-.03.07-.12.06-.17-.04-.27.05-.49.2-.66.29-.31.5-.68.65-1.1.02-.06.06-.12.1-.15.09-.05.11-.13.1-.24,0-.11,0-.21.1-.28.03-.02.03-.09.04-.14.01-.05,0-.14.04-.16.13-.08.12-.23.08-.34-.09-.23.04-.36.13-.52.03-.05.07-.08.1-.11,0-.29.07-.54.17-.78.02-.06.03-.14.02-.2,0-.08.01-.1.07-.1.12,0,.24,0,.36,0,.03,0,.07.02.1.04.29.19.6.35.93.41.12.02.24.06.27.24,0,.03.04.04.07.06,0,0,.02,0,.03,0,.19,0,.35.05.46.26.05.1.11.09.19.03.14-.1.14-.09.21.08.02.05.05.1.07.15.03.07.07.1.13.07.06-.03.09,0,.13.06.06.08.16.13.19.26,0,.02.08.03.13.04.21.04.22.05.2.3,0,.12,0,.2.13.17.1-.02.15.06.11.18-.03.11-.03.19.06.26.07.06.09.15.03.26-.03.05-.03.11-.06.15-.02.04-.06.06-.1.08-.02-.06-.03-.13-.05-.19,0,0,.02-.02.02-.03,0-.04-.01-.08-.02-.12-.03.01-.08.02-.09.04-.03.1-.05.21-.06.31,0,.11.06.13.14.11.08-.03.1.01.11.1,0,.07.01.14.01.21,0,.03,0,.09-.01.09-.15.07-.08.21-.07.33,0,.03,0,.05,0,.1-.15-.03-.11-.2-.17-.29,0,0-.02,0-.02,0-.07.17-.26.16-.32.33-.07.17-.15.33-.22.51-.02.05-.01.13,0,.19,0,.09-.01.15-.1.13-.09-.01-.14.03-.16.13-.03.16-.17.18-.26.26-.02.02-.05.04-.11.08.09.02.15.04.24.06-.05.07-.07.15-.12.17-.03.02-.09-.03-.14-.05-.05-.03-.1-.08-.15-.09-.13-.02-.2.1-.17.24.05.18.05.18-.11.21-.13.03-.24.04-.36-.06-.02-.02-.07-.02-.09,0-.11.12-.24.22-.27.42-.02.13-.03.27-.05.4,0,.05-.02.12-.05.13-.1.06-.11.17-.14.27-.05.15-.09.31-.17.44-.05.08-.16.12-.25.15-.05.02-.08.04-.1.11-.01.06-.06.12-.1.15-.14.08-.25.19-.31.37-.05.16-.11.31-.17.47,0,.02-.03.05-.04.06-.12.04-.12.14-.09.26,0,.03,0,.07-.02.1-.04.1-.16.17-.03.3.01.01-.01.08-.02.11-.04.1-.08.2-.13.33.06,0,.1-.01.13-.02.07-.01.14-.02.21-.03.1-.02.14.02.14.16,0,.17,0,.35.02.53,0,.04.05.08.07.13.03-.03.07-.06.09-.1.03-.05.04-.12.07-.2.03.06.06.09.06.12,0,.13.07.17.15.19.09.02.16.08.2.19.03.1.08.18.19.19.09,0,.1.08.05.17-.1.17-.1.18.07.25.14.05.27.12.33.3.01.03.04.06.07.07.13.06.27.11.41.17-.01.09-.03.16-.03.22,0,.12.03.16.12.12.08-.04.12-.02.15.07.05.12.12.23.18.35,0,.01.01.03.02.03.19.05.24.27.34.43,0,.01.01.03.02.03.2.05.27.3.43.42.05.03.08.13.09.2.02.1.05.16.13.18.06.01.11.05.17.06.11.03.21.06.22.23,0,.03.07.08.1.09.15,0,.23.11.27.26.05.16.16.23.27.3.05.03.1.09.13.14.1.15.16.34.28.46.25.26.53.48.8.72.02.02.05.03.07.05.12.28.37.39.54.61.03.04.08.09.09.14,0,.09.05.1.11.13.18.07.36.15.52.25.03.02.03.13.05.2,0,.04,0,.07,0,.11.01,0,.02.02.02.01.21-.11.34.11.5.19.04.02.06.11.07.18,0,.09.04.12.11.12.09,0,.19,0,.28.02.14.03.18.08.17.25,0,.11.02.15.12.14.17-.02.33.07.47.18.07.05.13.1.1.22,0,.02.05.09.08.1.16.03.33.05.5.06.08,0,.15.02.15.14,0,.01,0,.03,0,.04.03.11.4.33.49.29.15-.08.28-.05.41.05.03.02.06.03.12.05-.04.1-.07.2-.12.32.13.09.27.2.42.31.16.11.32.2.47.32.24.2.51.31.79.41.03.01.07.02.1.03-.03-.08-.06-.17-.09-.26.23-.06.3.01.27.26-.01.1.01.14.1.16.06.01.11.06.16.07.06.01.12,0,.2.01-.02-.11-.06-.15-.13-.13-.03,0-.08,0-.11-.01-.02-.01-.03-.05-.05-.08.03-.01.06-.04.08-.04.08.03.16.07.23.13.1.09.22.12.34.07.03-.01.08,0,.11.01.19.13.26.32.26.58,0,.06.03.16.06.17.1.03.21.14.31,0,.07-.09.11-.15.17.01.02.06.1.08.15,0,.09-.13.14-.12.22.01.02.03.06.05.1.06.04,0,.08,0,.12,0,.13,0,.24.04.28.22.03.18.12.32.3.33.06,0,.11,0,.11-.09,0-.12.05-.12.13-.07.19.1.39.17.59.26.05.02.11.05.14.09.12.23.31.18.49.17.03,0,.08-.02.1,0,.11.09.21.14.33.02.01-.01.04,0,.05,0,.1.08.21.16.3.25.03.03.02.13,0,.18-.05.14-.15.25-.12.42,0,.01-.02.04-.03.05-.18.16-.36.31-.55.46-.02.01-.03.04-.04.04-.17.02-.29.16-.4.29-.03.03-.07.05-.11.05-.21.02-.42.04-.63.05-.07,0-.1.03-.15.09-.15.19-.3.39-.55.36-.03,0-.06,0-.08.02-.14.11-.3.11-.46.1-.07,0-.15,0-.18-.11,0-.01-.06-.01-.09,0-.07.04-.14.09-.21.13-.08.05-.16.09-.24.12-.08.03-.16.04-.25.06-.08.02-.15.01-.21-.08-.05-.07-.31-.04-.37.04-.05.07-.09.06-.13,0-.07-.13-.14-.11-.22-.02-.03.03-.07.06-.11.07-.1,0-.2,0-.21.17,0,0-.05.03-.08.02-.24-.08-.48-.07-.72,0-.1.03-.18.02-.23-.11-.03-.08-.08-.09-.14-.03-.03.04-.08.06-.14.11Zm-11.12-9.91c.06-.03.1-.05.14-.08.1-.07.11-.12.03-.22-.13-.17-.24-.34-.37-.51-.07-.09-.14-.17-.21-.25-.03-.04-.11-.06-.1.02.02.14.06.32.14.4.09.09.16.2.22.31.04.06.07.12.11.17,0,0,.02-.01.02-.02,0,.05,0,.1.02.18Zm-1.57-1.8s.02-.03.04-.04c0-.08.02-.18,0-.24-.06-.12-.14-.23-.3-.22.04.08.08.15.11.22.02.04.03.1.01.14-.04.08-.01.13.03.18.04.05.08.1.11.16.05.12.15.12.24.13.04,0,.08-.06.12-.09-.03-.04-.05-.09-.09-.11-.09-.05-.18-.1-.27-.14Zm2.82-7.33s-.02-.02-.03-.03c-.09.12-.2.22-.25.35-.04.1-.07.17-.15.23-.05.03-.07.11-.1.17.06,0,.13.02.19.02.02,0,.05-.02.07-.04.16-.2.28-.42.28-.71Zm13.95,15.75s.02-.04.03-.06c-.05-.04-.09-.1-.14-.13-.1-.06-.22-.08-.31-.15-.09-.08-.17-.05-.26,0,.23.09.41.34.67.34Zm-1.62-.87c-.04-.15-.28-.32-.38-.27-.02,0-.04.09-.02.11.02.04.06.08.11.1.09.03.19.04.3.06Zm-3.12-1.99s-.11.07-.12.12c-.02.07.1.18.2.16.04,0,.08-.08.09-.13.01-.12-.07-.12-.16-.15Zm-13.7-5.73c-.12.01-.15.1-.15.19,0,.03.06.1.1.1.09,0,.15-.06.15-.17,0-.04-.06-.08-.1-.12Zm2.32.72s.02-.04.03-.07c-.07-.06-.14-.13-.22-.19,0,0-.04,0-.05.01,0,.02-.02.07,0,.08.08.06.16.11.24.17Zm.67-4.98s0-.04,0-.06c-.04-.02-.08-.06-.11-.06-.04,0-.07.04-.11.07.04.03.08.08.12.1.03,0,.06-.03.1-.05Zm.79,1.08s-.03,0-.04,0c0,.05-.01.14,0,.15.05.02.11.01.16.02,0-.01,0-.03,0-.04-.04-.04-.09-.09-.13-.13Zm17.1,12.6c-.05-.03-.08-.06-.12-.05-.02,0-.06.06-.05.07.01.04.05.09.07.08.03,0,.06-.05.1-.1Zm-19.9-9.27s-.07-.08-.1-.11c-.02.02-.05.06-.05.07.02.04.05.07.08.09,0,0,.04-.03.07-.05Zm-1.2-.16s-.02-.04-.03-.05c-.04.02-.08.05-.11.07,0,0,.02.05.03.08.04-.03.07-.06.11-.09Z"/>
      <path class="cls-1" d="m165.89,17.03c-.02-.1-.05-.18-.06-.27,0-.05.04-.1.06-.15.04.03.1.04.12.08.09.16.07.22-.12.35Z"/>
      <path class="cls-1" d="m158.29,26.32s.09-.08.13-.12c.01.03.04.09.03.1-.04.04-.08.06-.12.09-.01-.02-.03-.05-.04-.07Z"/>
      <path class="cls-1" d="m161.03,23.9c-.06.04-.12.07-.21.12.05-.12.09-.19.18-.17,0,.02.02.03.02.05Z"/>
    </g>
    <g>
      <path class="cls-1" d="m146.19,25.77c.16-.13.16-.27.04-.4-.09-.1-.17-.22-.34-.17-.02,0-.04,0-.06.02-.14.11-.28.22-.42.32-.1.07-.22.11-.32.17-.03.01-.06.03-.07.05-.09.24-.19.46-.36.66-.11.12-.17.28-.26.43-.01.02-.03.04-.04.06-.14.17-.3.33-.4.52-.1.19-.26.32-.39.48-.14.18-.25.37-.38.56-.08.12-.15.27-.25.36-.22.19-.3.45-.43.69-.12.2-.18.43-.35.61-.12.13-.17.32-.25.48-.02.04-.04.08-.07.12-.08.13-.16.27-.24.4,0,.01-.01.03-.02.05-.11.14-.22.29-.32.43-.07.1-.12.2-.19.3-.07.1-.17.13-.3.12-.08,0-.17,0-.25,0-.07.18-.21.08-.32.1-.04,0-.08-.03-.12-.05,0-.01,0-.03.01-.04-.05,0-.09,0-.14,0-.14.01-.26,0-.33-.14,0-.01-.02-.03-.03-.03-.29-.06-.26-.35-.38-.53-.11-.15-.18-.34-.27-.51-.02-.04-.03-.08-.04-.12,0-.08,0-.15-.07-.21-.04-.03,0-.16.02-.25,0-.03.06-.06.05-.09-.02-.13.06-.2.12-.29.14-.18.25-.38.37-.57,0,0,0-.02,0-.02-.02-.18.11-.3.18-.45.02-.03.02-.07.02-.11,0-.09,0-.18,0-.27,0-.02,0-.07,0-.07.17-.07.06-.22.09-.33.01-.04.04-.07.06-.1.01-.03.04-.05.04-.08,0-.1,0-.19,0-.29,0-.06-.02-.13.07-.14.01,0,.02-.06.02-.1,0-.25,0-.51,0-.76,0-.05-.02-.12.07-.14.02,0,.03-.06.03-.09,0-.23,0-.46,0-.69,0-.04.04-.07.06-.11.02-.04.04-.08.04-.12,0-.55,0-1.09,0-1.64,0-.06-.03-.14.08-.15,0,0,.02-.05.02-.08,0-.11,0-.23,0-.34,0-.07-.04-.16.08-.19.02,0,.02-.09.02-.14,0-.62,0-1.25,0-1.87,0-.07-.04-.16.08-.18.01,0,.02-.06.02-.09,0-.37,0-.73,0-1.1,0-.03-.04-.07-.05-.1-.01-.03-.04-.05-.04-.08,0-.07,0-.15,0-.22,0-.03-.04-.06-.06-.1-.02-.04-.04-.09-.04-.13,0-.15-.09-.25-.16-.37-.05-.08-.06-.32.01-.39.02-.02.04-.04.04-.05,0-.23.12-.41.27-.56,0,0,.01-.01.01-.02.01-.21.17-.17.3-.17,0-.01,0-.02-.01-.04.05-.02.1-.06.15-.06.12,0,.25,0,.37,0,.05,0,.11-.02.12.07,0,.01.05.03.08.03.1,0,.21,0,.31,0,.04,0,.08.03.12.05,0,.02,0,.03-.01.05.2,0,.41,0,.61,0,.02,0,.04,0,.05,0,.19-.19.5-.28.54-.61,0-.02.03-.06.05-.07.16-.08.33-.14.49-.22.04-.02.07-.07.12-.09.05-.04.11-.06.17-.1.03-.02.07-.03.09-.06.18-.23.45-.32.71-.44.03-.01.05-.03.07-.04,0,0,.01-.01.02-.02.23-.19.42-.42.68-.6.27-.18.47-.44.7-.68.13-.14.22-.3.21-.5,0-.06.04-.12.07-.17.05-.09.11-.17.18-.28.17.03.24-.15.35-.26.2-.19.19-.2.45-.07.23.11.46.22.68.33.06.03.11.09.15.15.05.09.08.2.12.29,0,.02.03.04.05.04.2.06.33.21.34.42,0,.02,0,.07.01.07.13.03.08.13.08.21,0,.15,0,.29,0,.44.01.15-.03.26-.14.36-.07.07-.11.17-.17.25-.04.05-.08.11-.13.13-.16.04-.25.18-.36.27-.12.09-.24.17-.37.25-.12.07-.26.08-.35.2,0,0-.02.01-.03,0-.15-.05-.29.05-.38.12-.15.12-.3.06-.44.09,0,.01,0,.02,0,.03-.05.02-.1.05-.15.06-.07.02-.17-.05-.19.09,0,0-.05.01-.08.01-.09,0-.18,0-.27,0-.1.2-.28.04-.41.12-.05.17-.2.04-.3.09-.05.17-.2.05-.3.1-.05.17-.2.05-.29.12-.05.02-.1.07-.15.06-.2-.03-.28.12-.36.24-.06.08-.02.19.03.3.09.2.25.34.41.48.02.01.03.04.03.06-.02.25.16.42.25.62.05.12.17.2.22.32.17.39.54.6.8.91.02.02.04.06.06.06.14,0,.26.08.39.12.14.04.32-.11.39-.27.03-.06.06-.11.1-.17.14-.2.28-.41.42-.6.12-.17.25-.34.38-.5.14-.16.29-.3.44-.44.17-.17.28-.36.25-.62,0-.09,0-.18,0-.27,0-.09-.01-.19.08-.25.01,0,.02-.04.02-.06,0-.1.04-.14.14-.12,0,0,.02,0,.02,0,.11-.16.28-.08.43-.09.28-.03.5.09.73.25.21.15.4.32.57.5.13.13.2.32.32.46.11.14.09.28.1.43,0,.03,0,.07-.01.1-.08.12-.16.24-.25.35-.03.04-.07.07-.11.08-.17.04-.25.13-.24.29,0,0-.01.01-.02.01-.22-.04-.35.1-.48.24-.15.16-.31.33-.48.48-.18.15-.38.27-.57.4-.12.08-.23.16-.35.23-.08.05-.17.09-.25.14-.09.06-.18.13-.27.19-.07.04-.15.08-.23.11-.11.05-.23.1-.36.16.11.18.22.39.36.56.15.18.33.34.5.5.05.05.12.07.18.1.02.01.05.02.06.04.08.18.16.36.22.51.15.06.3.1.43.16.05.02.12.07.13.12.05.21.24.3.36.45.02.02.04.03.05.05.09.29.33.43.59.55.16.07.31.14.44.27.12.11.28.17.42.26.11.07.22.14.33.21.14.1.28.2.42.3.15.1.31.18.45.29.11.08.21.18.3.28.07.07.14.11.24.1.08,0,.17,0,.25,0,.03,0,.06.04.08.06.02.02.05.04.08.04.08,0,.16,0,.24,0,.03,0,.06.04.09.06.02.01.03.04.05.04.22,0,.39.12.55.26.12.11.28.17.42.26.01,0,.03.01.04.02.14.11.28.22.43.33.03.02.08.04.11.03.2-.02.37.03.54.13.19.12.39.23.64.16,0,.12.06.12.13.12.06,0,.12,0,.19,0,.02,0,.07,0,.07.02.02.12.12.09.18.08.16-.03.27.09.4.14.26.09.42.31.6.5.03.03.03.1.05.16-.23.03-.52-.08-.52.3-.05,0-.09,0-.14,0-.24,0-.48,0-.72,0-.06,0-.13-.03-.14.07,0,.01-.05.02-.07.03-.07,0-.15,0-.22,0-.02,0-.07,0-.07,0-.04.16-.17.08-.25.09-.18.01-.36,0-.54,0-.05,0-.11.03-.15.06-.18.14-.33.3-.52.41-.12.07-.26.17-.43.13-.04,0-.09.04-.14.06-.03.01-.05.02-.08.03-.02,0-.06,0-.07.01-.09.15-.23.08-.34.09-.23,0-.46,0-.69,0-.04,0-.08-.03-.12-.05,0-.02,0-.03.01-.05-.15,0-.3,0-.45,0-.05,0-.1-.02-.13-.05-.11-.1-.2-.23-.36-.27-.05-.01-.09-.06-.12-.11-.11-.14-.29-.18-.42-.27-.19-.14-.4-.09-.61-.09-.17,0-.29-.04-.4-.16-.18-.2-.37-.4-.57-.57-.21-.17-.41-.36-.66-.48-.03-.01-.05-.04-.08-.06-.17-.17-.35-.35-.52-.52-.05-.05-.12-.07-.18-.11-.03-.02-.05-.04-.07-.06-.05-.08-.09-.16-.15-.23-.09-.13-.18-.25-.28-.37-.13-.14-.26-.28-.4-.42-.16-.16-.31-.32-.47-.48-.02-.02-.05-.03-.08-.04-.04-.01-.07-.02-.13-.04Zm-1.19-.64c0-.06,0-.12,0-.17.01-.06.03-.13.07-.16.2-.15.27-.34.23-.57-.01-.07-.05-.13-.08-.2-.09-.18-.19-.37-.28-.55-.06-.12-.11-.24-.17-.38-.07,0-.17-.01-.25,0-.12.02-.27-.08-.34.09,0,0-.02,0-.04,0-.07,0-.15,0-.19,0-.05-.09-.08-.15-.11-.22,0-.02,0-.05,0-.07.09-.15.19-.29.16-.47-.01-.09,0-.17,0-.26,0-.03-.01-.05-.02-.08-.02-.05-.05-.1-.07-.15-.01-.04,0-.09-.02-.12-.13-.18-.17-.41-.35-.56-.06-.06-.12-.15-.12-.23-.01-.13-.05-.24-.11-.34-.07-.11-.11-.25-.2-.34-.25-.24-.35-.56-.49-.85-.07-.14-.19-.23-.29-.34,0,0-.02.01-.03.02v.31c-.07,0-.13,0-.19,0,0,.03,0,.05,0,.07,0,.37,0,.73,0,1.1,0,.04-.02.08-.03.12-.02.04-.06.08-.06.12,0,.32,0,.63,0,.95,0,.04-.02.08-.03.12-.02.04-.06.08-.06.12,0,.32,0,.64,0,.96,0,.04-.01.11-.03.11-.09.02-.07.08-.07.14,0,.31,0,.62,0,.94,0,.04,0,.12-.03.12-.09.03-.07.09-.07.15,0,.31,0,.62,0,.92,0,.05-.02.09-.04.14-.02.04-.06.08-.06.12,0,.31,0,.62,0,.94,0,.09,0,.16-.12.15.1.11.19.21.28.3.02.02.08-.01.11-.03.18-.09.34-.21.47-.36.01-.01.04-.01.06-.02.04-.02.09-.04.12-.07.17-.13.34-.27.52-.41.01-.01.03-.02.04-.02.15-.07.3-.11.41-.24.02-.02.05-.04.08-.06.15-.09.3-.19.45-.27.16-.09.13-.36.37-.36,0,0,0-.01.01-.02.06-.06.11-.13.18-.18.06-.04.13-.07.2-.07.07,0,.13.07.21.12Z"/>
      <path class="cls-1" d="m127.69,14.98s.07-.04.11-.06c.02,0,.05,0,.07,0,.24,0,.37-.1.45-.33.01-.03.06-.06.1-.07.12,0,.24,0,.36,0,.09-.21.28-.04.4-.14.05-.02.1-.06.14-.06.35,0,.71,0,1.06,0,0-.01,0-.02-.01-.03.05-.02.1-.06.15-.06.2,0,.39,0,.59,0,.04,0,.08-.03.12-.05,0-.02,0-.03-.01-.05.07,0,.13,0,.2,0,.03,0,.06-.04.1-.06.04-.02.08-.03.12-.04.07-.01.13-.02.2-.06.15-.08.31-.19.5-.13.03,0,.05.03.07.05.09.1.11.08.22,0,.07-.05.17-.05.26-.08.05-.02.1-.06.15-.06.12,0,.24,0,.33,0,.06-.04.1-.1.13-.09.16.04.28-.06.38-.13.11-.08.21-.08.32-.08,0-.01,0-.02-.01-.04.05-.02.1-.05.15-.06.11-.04.22-.06.33-.11.09-.04.18-.1.27-.15.05-.02.1-.04.15-.04.27,0,.54,0,.81,0,0-.01,0-.03,0-.04.05-.02.1-.05.14-.06.13,0,.26,0,.39,0,.04,0,.08-.03.12-.05,0-.01,0-.03-.01-.04h.36c.1-.2.28-.04.4-.14.05-.02.09-.06.14-.06.09-.01.17,0,.26,0,.06,0,.13.03.14-.07,0-.01.05-.02.08-.02.07,0,.13,0,.2,0,.07,0,.15.02.12-.1h.49c0-.11.06-.1.14-.1.27,0,.55,0,.82,0,.13,0,.2.08.23.17.03.07.07.19-.06.25-.02,0-.02.05-.02.08-.01.25-.18.41-.44.41-.01,0-.02,0-.04,0,0,.01,0,.02,0,.04-.06.02-.12.05-.18.06-.04,0-.08,0-.12,0-.07,0-.14,0-.14.1-.09,0-.16,0-.24,0-.07,0-.16-.04-.17.08,0,.01-.05.02-.08.02-.1,0-.19,0-.29,0,0,.01,0,.03,0,.04-.05.02-.1.06-.15.06-.15-.03-.24.1-.37.14-.15.05-.27.18-.45.17-.07,0-.14.07-.21.1-.16.09-.32.19-.48.27-.07.03-.17.02-.26.03,0,.02,0,.06,0,.06.11.05.08.14.09.22,0,.04.04.08.06.12.01.03.03.06.04.09,0,.06,0,.12,0,.17-.02.18.07.31.17.44.02.02.03.06.03.09,0,.27,0,.54,0,.81,0,.02,0,.07-.01.07-.15.03-.07.15-.09.23-.01.07.03.17-.09.2,0,0-.01.02-.01.03-.01.15.04.32-.12.42.15.09.34-.07.45.13.04,0,.08,0,.13,0,.05.02.11.04.15.07.07.04.14.08.2.13.13.12.27.23.37.37.1.14.15.32.24.48.05.09.13.16.21.23.13.11.18.27.26.4.04.07.07.15.13.19.08.04.07.1.08.16,0,.06-.04.16.08.17,0,0,.02.04.02.07,0,.21,0,.42,0,.64,0,0,0,0,0,.01-.03.04-.1.09-.09.13,0,.05.08.09.09.14.02.09,0,.18-.08.23-.19.13-.24.31-.21.52.01.08,0,.17,0,.25,0,.03-.04.06-.06.1-.02.04-.03.08-.04.12-.02.07.04.17-.08.19-.01,0-.02.06-.02.09,0,.15,0,.3,0,.45,0,.04,0,.08-.03.12-.06.1-.12.19-.19.28-.06.08-.09.16-.08.25,0,.02,0,.05-.01.06-.12.05-.06.17-.09.25-.03.1-.09.18-.14.27-.02.05-.05.1-.05.16,0,.18,0,.37,0,.55,0,.04-.04.07-.06.11-.01.03-.04.06-.03.09.03.17-.06.31-.12.46-.07.15-.17.29-.2.47-.03.16-.14.31-.22.46-.11.22-.24.44-.35.66-.03.06-.01.13-.02.2,0,.07.02.14-.08.18-.02,0-.02.06-.02.09-.02.08.04.18-.09.22-.01,0-.01.08-.01.12,0,.12-.08.23-.2.27-.15.04-.22.11-.2.26.02.16-.07.29-.14.41-.04.07-.15.11-.24.17-.03.05-.07.11-.1.18-.02.03-.01.08-.02.12,0,.06.03.15-.08.17-.01,0-.02.06-.02.09.01.1-.03.17-.09.24-.2.23-.47.34-.73.46-.16.08-.32.16-.48.25-.16.08-.3.19-.5.15-.05,0-.1-.02-.11.06,0,.01-.05.03-.08.03-.26,0-.52,0-.79,0-.1,0-.2-.1-.23-.21,0-.03-.04-.06-.06-.09-.02-.04-.04-.09-.04-.13,0-.37,0-.75,0-1.12,0-.06-.03-.13-.07-.17-.11-.12-.23-.24-.36-.35-.13-.12-.21-.28-.27-.44,0-.02-.01-.04-.03-.06-.11-.15-.25-.28-.32-.44-.12-.25-.34-.41-.51-.6-.11-.12-.25-.12-.37,0-.26.25-.51.52-.77.77-.23.22-.47.42-.73.61-.14.1-.31.16-.46.24-.08.04-.17.07-.25.11-.02,0-.03.03-.04.04-.08.1-.15.22-.24.31-.24.25-.48.49-.73.72-.15.14-.32.24-.54.22-.1-.01-.2,0-.31,0,0-.14-.02-.27,0-.4.02-.1.09-.19.14-.28.09-.15.18-.3.26-.44,0-.01.02-.03.03-.04.16-.2.32-.39.47-.59.11-.15.2-.31.3-.46.02-.02.03-.05.05-.07.13-.17.28-.34.4-.52.16-.24.31-.49.47-.74.08-.13.18-.26.27-.39.11-.17.22-.34.33-.51.07-.11.15-.23.22-.34.1-.15.22-.29.32-.44.04-.05.05-.12.09-.18.14-.21.28-.42.41-.63.16-.25.31-.5.47-.74.09-.14.21-.28.3-.42.13-.2.25-.42.37-.62.06-.1.11-.2.17-.3.01-.03.02-.06.03-.09,0-.08-.02-.17.08-.21,0,0,.02-.03.02-.04,0-.25.14-.43.31-.58.07-.06.11-.13.09-.23,0-.05,0-.11,0-.16,0-.08.03-.13.08-.2.09-.11.15-.24.22-.36.03-.05.05-.09.08-.14.1-.14.2-.27.3-.4.02-.02.02-.06.02-.09,0-.08,0-.17,0-.25,0-.16.01-.3.14-.44.12-.13.18-.31.26-.47.05-.11.07-.24.12-.34.05-.11.03-.26.1-.33.09-.1.05-.2.09-.29.13-.26.19-.54.36-.78.04-.06.03-.15.03-.23,0-.08,0-.16,0-.26-.12,0-.28-.05-.35.01-.1.09-.21.06-.31.1-.16.06-.3.16-.45.24-.24.12-.48.23-.72.36-.12.06-.24.13-.34.22-.14.13-.3.22-.47.29-.17.06-.35.1-.49.21-.15.11-.3.08-.46.08-.25,0-.51,0-.76,0-.05,0-.1-.03-.14-.06-.02-.01-.04-.03-.05-.05-.19-.25-.48-.35-.75-.49-.23-.12-.46-.25-.7-.34-.19-.07-.23-.23-.31-.38-.06-.11-.1-.2-.09-.33,0-.01,0-.03-.02-.04-.1-.1-.11-.18-.04-.3.02-.04.04-.08.06-.12.05-.13.13-.19.27-.19.07,0,.13,0,.2,0,0-.01,0-.03,0-.04Zm3.22,11.42c.09.01.18,0,.25.04.14.08.27.18.39.28.15.12.3.21.49.2.05,0,.09,0,.14,0,.17,0,.34-.01.51,0,.16.01.34-.08.46.1.16,0,.33.04.45-.13.09-.12.21-.22.29-.34.1-.14.17-.3.28-.43.12-.15.24-.3.23-.51,0-.02,0-.06.02-.07.1-.04.06-.12.07-.19,0-.04.01-.11.03-.12.08-.02.08-.08.06-.12-.05-.2.14-.35.11-.54,0,0,0-.02.01-.02.11-.04.07-.13.08-.21,0-.04.02-.07.04-.11.02-.04.05-.07.06-.11.03-.11-.06-.25.09-.33.01,0,0-.05,0-.07,0-.07,0-.14,0-.21,0-.03.01-.07.03-.07.1-.02.07-.09.07-.15,0-.09,0-.18,0-.27,0-.03,0-.08.02-.08.12-.02.08-.11.08-.17,0-.13,0-.27,0-.4,0-.04,0-.09.03-.11.18-.15.28-.33.27-.57,0-.02.02-.05.03-.05.09-.01.07-.08.07-.13,0-.49,0-.97,0-1.46,0-.04,0-.07,0-.11h-.48c-.02.06-.02.12-.05.17-.14.21-.28.42-.42.63-.07.1-.13.2-.2.29-.01.02-.02.04-.03.05-.11.17-.21.34-.33.5-.09.12-.21.21-.32.32-.03.04-.05.1-.07.15-.01.05,0,.14-.03.15-.1.04-.07.12-.07.2,0,.03,0,.08-.02.09-.11.08-.16.2-.23.31-.12.18-.27.35-.41.52-.01.01-.02.03-.03.04-.11.23-.2.47-.38.68-.14.17-.24.38-.38.55-.17.21-.38.4-.54.63-.16.24-.34.46-.48.71-.09.15-.16.31-.24.47Z"/>
      <path class="cls-1" d="m143.12,4.2c.16.12.33.19.4.32.09.14.21.22.33.31.12.1.26.19.38.29.08.06.16.13.22.21.03.04.03.1.04.15,0,.06-.02.14.08.16.01,0,.03.04.02.05-.03.14.04.27.11.37.11.16.07.37.2.5.15.15.06.34.1.5.03.12.1.24.16.36.01.03.04.06.04.1,0,.1,0,.2,0,.3,0,.04-.04.07-.06.11-.01.02-.03.04-.03.06,0,.02,0,.04,0,.06.05.34-.11.61-.26.89-.06.12-.13.25-.16.4-.02.11-.04.27-.1.34-.08.1-.03.21-.09.28-.09.11-.05.27-.11.32-.12.1-.05.22-.11.32-.06.1-.1.21-.16.31-.03.06-.07.12-.11.18.06.11.16.16.29.14.06,0,.12,0,.17,0,.14.02.24-.03.32-.13.03-.04.1-.06.15-.06.17,0,.35,0,.52,0,.07,0,.16.03.13-.1h.38s0-.02,0-.04c.05-.02.1-.05.15-.06.08-.01.15-.03.23-.07.11-.06.21-.17.37-.14.05.01.13-.06.19-.09.17-.09.34-.19.51-.28.01,0,.02-.02.03-.01.15.05.26-.08.39-.11.06-.01.1-.07.15-.09.06-.02.12,0,.18,0,.05-.18.21-.06.29-.14.05-.02.1-.05.15-.06.07-.02.17.04.2-.08,0-.01.06-.02.09-.02.17,0,.33,0,.5,0,.03,0,.06,0,.08-.02.12-.12.17-.12.32,0,.02.01.05.01.07.01.08,0,.16,0,.24,0,.22-.01.39.08.54.22.1.09.2.18.28.29.09.13.16.26.17.44.01.22-.05.38-.22.52-.11.08-.2.19-.29.29-.16.16-.33.28-.57.26,0,.01,0,.02.01.03-.05.02-.1.05-.15.06-.09.01-.17,0-.26,0-.17,0-.32,0-.44.15-.06.07-.18.1-.27.15-.14.08-.28.11-.44.1-.03,0-.06.05-.12.1h-.23s0,.03,0,.04c-.05.02-.11.05-.16.06-.06,0-.13,0-.19,0-.03,0-.06.04-.09.05-.03.02-.07.04-.1.04-.05,0-.11,0-.16,0,0,.01,0,.03,0,.04-.06.02-.12.06-.18.06-.14,0-.25.02-.36.13-.11.1-.25.2-.42.17-.08-.01-.16,0-.24,0-.14-.02-.24.03-.34.13-.06.07-.16.1-.24.14-.17.08-.35.14-.51.25-.1.07-.19.08-.3.08-.01,0-.03,0-.03,0-.04.16-.17.08-.25.09-.18.01-.37,0-.56,0,.05-.3-.22-.29-.37-.39-.11-.07-.23-.15-.38-.11-.02,0-.05-.05-.09-.09-.13-.03-.24.02-.36.12-.23.21-.36.47-.48.74-.09.2-.22.35-.35.52-.23.29-.47.55-.72.82-.11.12-.18.27-.3.38-.1.09-.25.14-.37.22-.11.07-.22.13-.38.09,0,.16,0,.31,0,.46,0,.14-.11.25-.25.25-.18,0-.36,0-.5,0-.08.15-.15.28-.22.41-.02.03-.02.08-.03.12,0,.17-.11.27-.3.26.03-.1-.06-.22.08-.31.03-.02,0-.12.02-.18,0-.04.04-.07.06-.11.01-.03.03-.05.04-.08,0-.06,0-.13,0-.19,0-.05.05-.09.07-.14.05-.11.09-.22.13-.32.02-.06.05-.12.08-.18,0-.02.02-.04.02-.07.01-.09-.03-.2.09-.25,0,0,.01-.03.01-.05-.03-.15.07-.23.16-.33.12-.14.22-.29.33-.43,0,0,.01-.02.01-.03-.03-.19.1-.31.18-.46.02-.04.02-.09.02-.13,0-.06-.02-.13.07-.15.01,0,.02-.02.02-.04.03-.33.24-.59.37-.87.1-.21.22-.42.32-.63.02-.03,0-.08.01-.12.02-.05.05-.09.07-.14.01-.02.02-.04.03-.06,0-.09-.02-.2.09-.25,0,0,0-.02,0-.03-.02-.19.1-.32.18-.47.02-.03.01-.07.02-.11,0-.07-.02-.14.08-.18.02,0,.02-.06.02-.09,0-.08-.02-.17.08-.22.01,0,.01-.04.02-.07,0-.09-.03-.18.09-.24.03-.01,0-.11.02-.17,0-.04.04-.07.06-.11.01-.03.03-.05.04-.08,0-.08-.03-.18.01-.23.08-.11.04-.27.11-.34.16-.17.04-.36.08-.53.01-.05-.02-.11.07-.12.02,0,.03-.06.03-.09,0-.16,0-.32,0-.49,0-.04.04-.07.06-.11.01-.03.03-.05.04-.08,0-.09,0-.18,0-.27,0-.05.05-.1.07-.15.01-.03.03-.05.03-.08,0-.07,0-.13,0-.2-.02-.24.1-.51-.16-.64.03-.09.05-.15.06-.21,0-.1,0-.2,0-.3,0-.07.03-.15-.07-.18-.02,0-.02-.07-.02-.1,0-.35,0-.71,0-1.06,0-.03,0-.08.02-.09.17-.11.23-.29.29-.47,0-.02.06-.05.1-.05.15,0,.31,0,.46,0,.07,0,.15.03.15-.12Z"/>
      <path class="cls-1" d="m133.09,6.33c.17.02.23-.08.32-.15.11-.09.24-.16.36-.24.16-.1.33-.14.52-.12.07,0,.15-.02.12.1.09,0,.16,0,.23,0,.21,0,.37.09.53.22.14.11.31.2.46.3.04.03.08.05.12.09.37.37.74.73,1.1,1.1.03.03.05.09.05.13,0,.12,0,.23,0,.35,0,.08-.05.2.08.24,0,0,.01.02.01.03-.02.25.16.43.25.64.07.17.2.32.16.53,0,.02,0,.06,0,.06.15.06.09.19.09.28,0,.39,0,.77,0,1.16,0,.06-.05.12-.07.18-.01.03-.02.06-.02.09,0,.09,0,.18,0,.27,0,.05-.05.09-.06.13-.01.03-.04.08-.03.11.03.19-.06.31-.19.43-.11.1-.2.2-.36.16-.05-.01-.1-.06-.15-.07-.2-.01-.19-.22-.3-.3-.12-.08-.25-.15-.38-.23-.02-.01-.05-.02-.08-.04-.1-.07-.15-.22-.34-.16.08-.14.13-.23.18-.32.02-.03.02-.08.02-.12.03-.21-.06-.39-.15-.58-.08-.18-.24-.29-.34-.44-.14-.21-.3-.39-.47-.57-.11-.12-.2-.26-.3-.39-.07-.1-.15-.2-.22-.31-.02-.03-.02-.06-.03-.09,0-.08.03-.17-.08-.2,0,0-.01-.02-.01-.03,0-.26-.18-.44-.28-.66-.04-.1-.09-.2-.13-.31,0-.02-.02-.05-.04-.06-.15-.11-.18-.29-.27-.44-.06-.1-.11-.2-.1-.32,0-.02-.03-.03-.04-.05-.02-.02-.05-.04-.05-.06-.02-.11.03-.24-.12-.32Z"/>
    </g>
    <path class="cls-1" d="m117.45,18.93c.04-.14.06-.22.09-.33-.3-.06-.61-.11-.91-.17,0-.02,0-.03,0-.05.09-.03.18-.06.27-.1-.24-.2-3.02-.2-3.31,0,.06.05.11.09.18.15-.17.03-.33.04-.48.09-.14.04-.28.05-.36.26-.05.14-.29.22-.45.32-.58.4-1.03.93-1.45,1.49-.14.2-.34.36-.46.57-.1.18-.11.41-.16.62-.02.08-.02.16-.04.3-.08-.13-.12-.21-.21-.35-.13.58-.05,1.09-.03,1.6.04,0,.08,0,.11,0,.04-.25.07-.5.11-.75h.04c0,.15,0,.31,0,.46.01.3.03.59.05.89,0,.15.02.26.22.35.17.07.27.29.39.45.21.28.48.39.82.31.14-.03.29-.05.42-.1.1-.04.18-.13.28-.2.03-.02.06-.05.09-.07.47-.22.76-.62,1.03-1.04.25-.4.53-.77.8-1.16.2-.29.39-.6.6-.89.15-.2.35-.35.49-.56.23-.33.44-.67.62-1.03.15-.31.42-.47.75-.35.18.07.29,0,.37-.16.05-.1.08-.2.12-.3.02,0,.04,0,.07,0,.04.29.09.58.12.88.03.23.04.24.27.21.06.3.11.6.18.97.07-.14.11-.22.18-.36.02.17.02.28.04.38.15,1.06.03,2.12-.03,3.17,0,.07-.01.17-.06.2-.31.26-.25.62-.28.95,0,.05-.01.09-.02.17-.07-.06-.13-.11-.24-.2-.05.36-.09.68-.14.99-.08-.05-.14-.08-.2-.12-.03.06-.06.13-.07.19-.02.1-.01.21-.04.31-.03.08-.1.15-.16.21-.03.03-.09.05-.1.09-.19.51-.6.81-1.04,1.1.01.03.03.08.06.16-.84.09-1.65.12-2.51-.05.1-.07.16-.11.28-.2-.2-.02-.35-.04-.5-.05-.32-.03-.34-.06-.31-.37.02-.19-.07-.27-.2-.4-.17-.16-.44-.25-.51-.4-.17-.34-.51-.41-.76-.61-.12-.1-.33-.08-.51-.17l.33-.1v-.05c-.17-.02-.35-.02-.52-.06-.12-.03-.24-.09-.32-.17-.34-.34-.69-.67-1.09-.95-.22-.16-.4-.35-.41-.65,0-.35-.03-.71,0-1.05.01-.16.13-.31.23-.45.1-.12.09-.2,0-.31-.36-.41-.17-1.04.36-1.16.23-.06.31-.16.29-.38,0-.09-.03-.18-.02-.26,0-.15.02-.3.06-.44.05-.23.12-.46.18-.69.02-.08.03-.18.08-.24.44-.53.97-1,1.56-1.35.44-.26.9-.55,1.46-.52.16,0,.32-.03.51-.06-.04-.06-.07-.1-.13-.18.31-.02.59-.04.87-.05.43-.02.87-.06,1.3-.05.71.02,1.43.07,2.14.11.29.32.82.16,1.1.53.05.06.16.07.23.11.74.42,1.4.93,1.99,1.55.19.2.44.34.63.55.31.34.56.74.9,1.05.26.24.3.54.41.85.07-.04.12-.06.19-.1.05.56.1,1.1.16,1.7.08-.14.13-.23.17-.31.02,0,.03,0,.05,0,0,.12.04.25.01.37-.12.5-.23,1.02-.61,1.42-.05.05-.11.12-.17.12-.24.03-.27.19-.27.38,0,.16-.01.29-.21.31-.04,0-.11.05-.11.08,0,.23-.17.25-.34.3-.08.02-.12.14-.22.26,0,0-.07,0-.09-.04-.06-.19-.21-.25-.37-.31-.08-.03-.13-.13-.2-.2-.04-.03-.08-.08-.12-.09-.09-.01-.18-.02-.26,0-.4.08-.66-.17-.88-.42-.11-.13-.11-.35-.18-.59.16-.03.3-.06.44-.09.18-.04.43.03.43-.28,0-.02.06-.07.09-.07.28,0,.24-.2.24-.37,0-.51,0-1.03,0-1.54,0-.13,0-.26-.19-.28-.04,0-.09-.1-.11-.16-.04-.12-.04-.26-.1-.37-.04-.08-.14-.14-.24-.19-.04-.28-.17-.49-.42-.68-.37-.27-.67-.64-1.02-.94-.22-.19-.48-.34-.72-.51-.04-.03-.08-.06-.09-.1-.06-.26-.23-.27-.51-.19Z"/>
    <path class="cls-1" d="m107.75,29.17c-.02-.06-.03-.13-.03-.2,0-.23-.15-.31-.36-.2-.03.02-.07.02-.11.02-.13,0-.26,0-.39,0-.21.01-.39-.05-.59-.11-.34-.1-.69-.23-1.06-.11-.04.01-.09,0-.14,0-.27-.04-.53-.08-.8-.12-.16-.02-.31-.06-.47-.08-.19-.03-.39-.06-.58-.08-.15-.02-.3,0-.45-.03-.21-.03-.43-.07-.64-.1-.03,0-.07.01-.1.01-.14.01-.27.03-.41.03-.15,0-.31-.03-.46-.03-.32,0-.64,0-.96-.02-.37-.03-.73-.1-1.09-.12-.3,0-.54-.15-.8-.26-.08-.04-.18-.06-.27-.07-.42-.05-.83-.08-1.25-.15-.2-.03-.4-.13-.57-.23-.24-.14-.26-.29-.14-.53.05-.09.12-.2.11-.29-.02-.32.11-.59.18-.89.09-.38.16-.77.23-1.16.02-.09-.03-.2-.05-.29-.01-.08-.04-.16-.03-.24.05-.36.12-.72.15-1.09.02-.23.13-.37.31-.46.13-.07.28-.14.42-.14.25,0,.45-.21.71-.14,0,0,.02,0,.03,0,.21-.12.44-.16.68-.17.24-.01.48,0,.71.07.15.04.31.05.47.08.04,0,.08,0,.11,0,.12-.03.25-.05.37-.08.11-.03.19,0,.28.07.18.17.4.24.65.22.2-.02.39,0,.56.11.12.08.19.03.26-.07.07-.1.13-.22.22-.28.3-.19.36-.45.28-.76-.01-.05-.05-.1-.09-.13-.25-.19-.51-.37-.75-.57-.29-.24-.6-.44-.98-.49-.09-.01-.18-.05-.26-.07-.1-.03-.19-.06-.28-.08-.25-.06-.45.12-.69.14-.2.02-.39.11-.59.18-.05.02-.1.06-.13.11-.13.2-.32.25-.53.27-.1,0-.2.02-.3.04-.13.02-.25.07-.38.07-.12,0-.22.02-.24.18-.06,0-.12,0-.18,0-.13,0-.25,0-.38,0-.24-.02-.32-.09-.37-.33-.03-.13-.04-.27-.05-.4,0-.28.03-.56,0-.84-.03-.27.03-.47.25-.63.03-.02.05-.04.07-.07.18-.17.39-.24.64-.25.26,0,.52-.07.78-.12.03,0,.05-.02.08-.03.15-.06.27-.03.33.12.05.11.12.12.22.11.28-.04.56-.05.83-.12.29-.08.44-.34.61-.57.02-.02,0-.07,0-.1.01-.21.02-.42.04-.64,0-.08,0-.14-.09-.15-.15-.04-.24-.15-.32-.27-.04-.07-.1-.14-.17-.17-.15-.05-.3-.08-.46-.1-.62-.08-1.17.12-1.66.5-.09.07-.18.12-.3.11-.06,0-.12.01-.17.04-.18.09-.36.18-.54.26-.03.01-.14-.03-.15-.07-.08-.3-.15-.59-.22-.89-.03-.13-.03-.26-.05-.4,0-.04,0-.1.02-.11.25-.13.48-.31.78-.33.27-.02.53-.09.76-.26.02-.02.09-.02.11,0,.11.09.22.07.33.02.1-.05.17-.04.25.05.14.14.19.14.35.02.12-.09.23-.2.36-.27.24-.14.39-.34.43-.61.03-.25,0-.49-.15-.7-.06-.08-.11-.17-.17-.25-.08-.11-.09-.21-.05-.34.05-.14.08-.28.11-.42.06-.25.11-.5.18-.74.06-.19.21-.28.42-.28.11,0,.22-.07.33-.11.1-.03.2-.09.31-.1.2,0,.41.03.61.03.27,0,.53-.06.8-.02.19.02.38-.03.58-.05.08-.01.17-.04.23-.09.15-.12.28-.26.41-.4.05-.06.12-.13.12-.2.02-.17,0-.35,0-.52,0-.11-.06-.19-.16-.23-.14-.06-.27-.13-.39-.21-.1-.07-.2-.14-.33-.06-.04.02-.1,0-.16,0-.53-.06-1.05-.09-1.56.09-.04.02-.09.02-.18.03.04-.11.04-.2.09-.26.15-.22.25-.47.29-.73.02-.12.06-.23.09-.36-.06-.16-.12-.34-.19-.53-.02-.06-.05-.13-.09-.16-.29-.22-.61-.38-.98-.45-.07-.01-.15-.05-.21-.1-.09-.07-.16-.14-.28-.14-.07,0-.16-.05-.22-.1-.19-.19-.44-.21-.67-.16-.29.06-.58.18-.76.44-.15.2-.31.32-.58.3-.19-.02-.39.08-.58.08-.44.02-.33.07-.52-.3-.03-.06-.05-.11-.09-.17-.07-.11-.11-.22,0-.34.03-.04.04-.12.03-.18,0-.19,0-.38-.04-.56-.1-.42-.22-.83-.33-1.24,0-.03-.03-.06-.05-.07-.13-.01-.12-.12-.15-.2-.03-.08-.06-.16-.1-.24-.09-.15-.5-.19-.6-.05-.08.11-.18.15-.3.17-.27.06-.32.1-.35.38-.03.38-.09.75-.19,1.11-.02.08.02.2.08.26.1.1.12.2.09.32-.01.05,0,.11,0,.16.02.29-.09.54-.23.78-.1.17-.23.25-.43.22-.22-.02-.44-.07-.68,0-.36.11-.58.3-.65.67-.03.17-.07.35.13.46.03.02.05.07.07.11.05.14.09.27.13.41.09.35.42.62.78.63.18,0,.36,0,.54,0,.07,0,.17.04.21.09.07.1.14.22.15.34.04.43.13.85.05,1.28-.03.18-.2.36-.38.36-.11,0-.25-.05-.33,0-.12.08-.24.05-.36.08-.08.02-.17.06-.25.08-.05.01-.11.01-.16,0-.12-.02-.23-.06-.35-.07-.33,0-.67.02-1,.02-.32,0-.32,0-.36-.33-.04-.32-.22-.56-.45-.77-.04-.04-.11-.05-.16-.05-.22,0-.45-.07-.63.12-.02.02-.06.03-.09.04-.27.09-.53.2-.81.26-.22.05-.27.2-.32.37-.02.08-.04.17-.1.22-.33.35-.66.69-1.13.86-.16.06-.31.15-.47.23-.31.16-.62.2-.74-.26-.01-.05-.07-.14-.09-.13-.11.02-.23.05-.32.11-.05.03-.06.14-.06.21,0,.09.03.18.06.27.06.19-.04.33-.16.45-.03.04-.12.06-.15.05-.24-.11-.54-.1-.73-.31-.02-.02-.05-.02-.08-.02-.25,0-.49,0-.74.04-.42.05-.84.13-1.25.19-.19.03-.33.13-.42.29-.03.05-.05.1-.1.12-.25.13-.45.38-.76.38-.01,0-.03,0-.04.02-.14.08-.28.17-.43.22-.43.15-.85.36-1.32.28-.02,0-.05.01-.07.02-.15.05-.3.1-.45.16-.2.07-.41.07-.63.04.01-.05.01-.09.03-.11.17-.26.35-.52.53-.78.22-.31.44-.62.65-.94.09-.13.15-.27.35-.29-.1-.21.03-.33.12-.46.03-.05.07-.1.1-.16.03-.06.05-.13.1-.18.36-.32.62-.72.79-1.16.11-.28.28-.51.45-.75.06-.08.09-.09.16,0,.12.15.27.24.48.22.04,0,.1,0,.13.04.32.31.66.26.95.07.31-.2.63-.37,1.02-.37.06,0,.11-.02.17-.03.34-.08.67-.11.99.08.05.03.13.04.17.01.27-.14.55-.17.85-.15.34.02.62-.11.86-.34.2-.2.21-.21.11-.47-.06-.15-.1-.32-.2-.44-.17-.21-.38-.39-.65-.49-.1-.04-.19-.11-.29-.16-.17-.1-.33-.2-.51-.29-.14-.07-.3-.11-.44-.18-.18-.08-.36-.07-.54-.01-.32.09-.65.19-.98.27-.2.05-.25-.01-.2-.21.07-.26.11-.52-.1-.75-.02-.02-.03-.05-.03-.08-.04-.19-.09-.39-.12-.58-.02-.15-.01-.31-.04-.46-.03-.18-.09-.35-.12-.52-.06-.31-.22-.56-.47-.75-.09-.07-.18-.14-.27-.22-.24-.24-.55-.31-.86-.39-.03,0-.06,0-.09,0-.2.09-.39.18-.59.28-.13.07-.26.15-.38.24-.06.04-.12.09-.14.15-.15.46-.24.93-.13,1.42.07.28.03.58.18.84.19.32.09.65-.06.95-.1.2-.18.4-.19.63,0,.11-.02.23-.07.34-.07.16-.23.29-.19.5,0,.01-.01.02-.02.04-.3.41-.49.87-.63,1.36-.03.11-.1.21-.15.31-.11.23-.24.46-.34.7-.15.37-.29.73-.58,1.02-.06.06-.1.15-.15.23-.16.29-.29.59-.47.86-.36.53-.74,1.05-1.11,1.57-.04.05-.06.11-.1.16-.24.34-.48.68-.74,1.02-.17.23-.36.44-.55.65-.21.24-.44.47-.66.71-.11.12-.23.24-.33.36-.31.39-.66.75-1.07,1.05-.04.03-.07.08-.11.12-.11.11-.21.23-.33.34-.1.09-.21.17-.32.25-.12.09-.26.17-.38.26-.05.03-.08.09-.12.13-.04.06-.08.12-.13.17-.06.06-.15.08-.2.14-.2.25-.48.38-.77.5-.11.05-.22.13-.31.2-.07.06-.06.21.02.29.08.09.12,0,.18-.03.05-.02.1-.03.15-.04.08-.01.18,0,.25-.03.26-.1.51-.22.77-.32.29-.11.6-.17.84-.4.14-.14.32-.25.46-.39.12-.12.24-.21.4-.27.08-.03.15-.08.22-.14.22-.19.43-.4.65-.59.13-.12.33-.19.41-.34.16-.29.41-.45.65-.64.32-.26.57-.57.79-.91.19-.29.37-.59.57-.87.12-.16.26-.32.41-.44.11-.09.19-.18.26-.29.1-.16.23-.29.36-.43.03-.04.12-.05.17-.04.11.04.2.12.3.15.24.06.33.25.38.45.06.24.2.4.38.54.24.18.4.4.47.69.02.09.04.18.06.27.02.07.03.17.08.21.21.19.31.44.39.7.02.05.05.11.03.15-.09.24-.16.52-.42.63-.26.11-.46.35-.77.36-.04,0-.08.04-.12.08-.07.06-.13.14-.2.19-.08.06-.16.12-.25.15-.28.07-.52.2-.74.39-.05.04-.11.07-.16.08-.18.05-.36.09-.55.13-.09.02-.19.03-.28.06-.06.02-.12.05-.19.08-.03.01-.05.05-.08.06-.2.04-.39.08-.59.11-.19.04-.39.07-.58.11-.1.02-.14.1-.14.21,0,.19.07.34.18.5.27.36.57.68.97.9.16.09.29.23.42.35.07.06.11.14.19.18.12.06.29.17.39.12.4-.17.83-.31,1.07-.73.01-.02.04-.04.06-.06.11-.13.21-.26.32-.39.07-.08.13-.17.21-.23.21-.15.43-.29.64-.44.19-.14.39-.24.63-.28.28-.04.31-.02.32.26,0,.28,0,.56,0,.84,0,.11.03.21.04.31.01.09.04.18.03.26-.01.12-.05.24-.09.35-.08.23-.08.46.02.68.06.13.07.25.03.38-.04.12-.08.24-.11.36-.04.16-.1.33-.09.49,0,.13-.02.25-.05.36l-.17-.79c-.01-.1-.04-.21-.03-.31,0-.11-.01-.21-.07-.32-.01-.02-.03-.05-.03-.07.01-.08,0-.14-.13-.17,0,0-.02-.01-.02-.02-.07-.05-.13-.11-.2-.16-.09-.06-.18-.13-.27-.19-.01,0-.04-.02-.05-.01-.11.02-.22-.02-.33-.04-.04,0-.08,0-.12,0-.1.02-.2.06-.3.06-.17,0-.3.04-.41.12-.05.03-.11.05-.17.06-.18.03-.26.12-.23.28.04.25.24.42.51.55.09.04.16.08.22.15.09.1.19.2.34.26.1.04.16.11.21.19.02.03.04.05.07.08.07.06.14.12.21.18.02.02.04.03.06.04.18.06.29.18.37.32.09.13.17.26.26.39-.03.04-.05.08-.08.13-.01.02-.03.04-.06.04-.21.08-.41.18-.62.23-.24.05-.44.15-.61.31-.04.03-.07.07-.12.08-.17.03-.29.1-.26.3,0,.02-.02.03-.02.05-.06.14-.12.27-.17.41-.06.18-.11.35-.16.53,0,.03,0,.07.02.09.14.15.15.35.2.53.02.06.07.12.12.18.13.14.3.26.38.42.14.26.33.43.58.56.1.05.2.13.28.22.21.26.47.33.77.19.48-.22.68-.62.73-1.11.02-.16.04-.3.13-.43.14-.2.26-.42.27-.68,0-.18.1-.32.23-.44.04-.04.08-.1.1-.15.07-.14.13-.28.2-.43.02-.04.04-.08.03-.12-.02-.32.15-.55.35-.77.29-.31.59-.61.88-.92.14-.15.29-.29.26-.52,0-.03.01-.07.03-.1.12-.22.25-.42.47-.56.07-.05.14-.12.18-.2.05-.11.11-.19.23-.22.04-.01.09-.06.11-.11.09-.17.17-.35.25-.52.03-.07.06-.15.08-.22.01-.04.02-.08.04-.11l-.04-.02s0,0-.01,0c-.86.88-1.77,1.7-2.75,2.46-.1-.11-.15-.25-.18-.42-.05-.41.08-.81.08-1.22,0-.42.13-.83.12-1.26,0-.15.04-.3.06-.44.03-.22.07-.44.08-.66.02-.23.06-.46.22-.64.02-.02.03-.05.03-.08-.02-.23.11-.37.29-.46.15-.08.32-.16.49-.19.25-.05.44-.25.71-.25.67-.41.92-.81.88-1.49-.01-.26-.09-.5-.4-.58-.27-.06-.54-.12-.79-.23-.22-.09-.4-.08-.59.03-.11.06-.22.05-.31-.03-.12-.11-.22-.24-.34-.36-.07-.07-.14-.14-.23-.19-.14-.07-.3-.1-.45-.17-.08-.04-.19-.11-.18-.17,0-.08.09-.16.15-.22.05-.05.13-.09.2-.12.26-.14.52-.28.78-.41.11-.05.23-.09.36-.11.21-.03.4-.07.58-.2.08-.06.19-.07.29-.09.14-.03.29-.03.41-.09.1-.05.19-.07.29-.09.19-.04.41-.04.49-.28.01-.04.07-.06.11-.08.24-.12.41-.3.46-.58.01-.07.07-.13.11-.2.08.05.16.1.23.16.03.03.04.07.06.11.09.25.24.42.51.48.12.03.23.1.34.15.03.01.06.04.09.04.18-.03.36-.05.53-.11.2-.08.38-.19.57-.29.08.16.09.33.02.51-.11.26-.19.52-.27.79-.11.36-.24.69-.52.95-.24.23-.33.54-.42.85-.02.06,0,.12,0,.19,0,.11.03.23,0,.34-.06.29-.11.57-.04.86,0,.04-.02.09-.02.13,0,.05,0,.12.04.15.09.1.19.18.28.27.19.17.38.15.55-.03.09-.09.2-.17.29-.25.03-.02.05-.05.06-.09.07-.16.13-.33.2-.49.03-.05.09-.1.14-.13.11-.06.22-.1.33-.14.2-.07.44.14.41.36-.03.19-.04.38-.05.57,0,.11-.02.24.12.3.02.01.02.06.03.09.03.19.05.38.08.57,0,.04,0,.08,0,.12-.02.2-.03.39-.05.59,0,.04,0,.09,0,.13-.03.12-.07.23-.1.35-.05.15-.07.32-.14.45-.09.16-.21.32-.33.45-.13.14-.53.1-.74-.05-.09-.07-.15-.15-.16-.28,0-.07-.05-.16-.11-.21-.28-.26-.58-.52-.94-.67-.08-.03-.15-.09-.23-.13-.1-.05-.2-.11-.31-.15-.17-.07-.34-.14-.51-.21-.09-.04-.17-.08-.26-.11-.22-.07-.45-.13-.68-.2-.19-.07-.38-.14-.56-.23-.25-.12-.46-.02-.67.09-.14.08-.17.16-.12.32.14.03.29.03.41.08.33.15.65.31.97.48.04.02.06.07.08.11.03.1.09.15.18.18.06.02.14.08.16.14.05.12.13.2.26.23.12.03.21.09.24.22,0,.03.06.07.09.07.1,0,.14.05.18.13.03.07.09.12.15.17.15.13.31.24.45.38.1.1.19.22.25.34.12.24.26.45.52.55.08.03.16.09.23.15.04.03.08.1.08.13-.05.18.04.32.1.47.04.1.05.2-.01.3-.16.26-.32.53-.48.79-.15.25-.46.4-.49.74,0,0,0,0,0,.01-.22.24-.43.5-.67.72-.32.28-.67.52-1.01.77-.39.29-.76.59-1.16.86-.3.2-.58.45-.95.54-.14.04-.17.19-.09.31.05.07.1.13.14.2.11.18.24.19.41.05.09-.07.2-.14.3-.14.14,0,.25-.04.36-.12.05-.04.11-.07.18-.1.29-.13.58-.26.88-.38.07-.03.16-.02.24-.04.06-.02.12-.04.17-.08.16-.12.31-.26.47-.38.1-.08.21-.14.3-.23.17-.16.33-.34.5-.5.14-.13.27-.25.36-.42.17-.29.36-.56.65-.76.23-.15.41-.36.53-.62.12-.27.36-.3.56-.09.13.14.26.28.46.3.03,0,.06.04.09.07.16.17.31.35.47.51.16.17.35.31.59.36.23.05.4.17.57.33.08.08.19.13.29.18.19.11.38.21.57.32.01,0,.02.02.03.03.26.24.53.47.86.63.28.14.56.3.85.44.15.07.3.13.45.21.4.22.78.48,1.2.67.66.29,1.29.63,1.99.81.41.1.79.35,1.18.54.04.02.06.06.09.09.05.04.09.09.14.13.11.06.22.12.33.17.09.04.18.07.27.08.19.03.38.03.56.06.31.06.54-.05.69-.33.04-.08.11-.16.18-.19.19-.09.4-.15.59-.22.04-.01.08-.02.1-.05.09-.1.2-.09.31-.08.1.01.17,0,.24-.09.05-.06.14-.1.22-.12.16-.03.32-.02.47-.06.39-.1.78-.19,1.18-.17.1,0,.2-.07.3-.11.02,0,.04-.03.06-.03.23-.04.47-.1.7-.1.38,0,.7-.15,1.04-.27.07-.03.15-.05.22-.06.24-.03.46-.1.68-.22.2-.11.42-.17.63-.25.11-.04.23-.07.33-.13.17-.1.21-.25.15-.43Zm-12.62-2.22c-.17-.03-.35-.05-.51-.11-.45-.17-.95-.21-1.33-.54-.1-.09-.23-.16-.36-.19-.5-.13-.94-.41-1.4-.61-.42-.18-.8-.45-1.19-.69-.02,0-.03-.02-.04-.04-.18-.26-.37-.52-.55-.8-.04-.06-.03-.16-.01-.24.03-.13.07-.25.12-.37.09-.24.19-.48.29-.72.08-.19.16-.38.14-.6,0-.07.05-.15.06-.22.04-.3.06-.61.12-.91.06-.31-.04-.65.13-.95.04-.07,0-.13-.03-.21-.11-.22-.2-.45-.28-.69-.03-.08.01-.19.02-.29,0-.07,0-.14-.02-.2-.08-.27.06-.63.29-.78.14-.09.25-.23.38-.35,0,0,.02-.03.02-.04,0-.22-.01-.44-.03-.67,0-.05-.05-.1-.09-.14-.18-.22-.41-.31-.69-.29-.12.01-.24.04-.36.05-.12.02-.25.07-.37.05-.3-.06-.59-.03-.85.13-.02,0-.03-.01-.05-.02,0-.06,0-.12.01-.17.09-.33.18-.65.28-.97.02-.07.06-.13.1-.19.06-.1.11-.2.17-.3,0,0,0-.02.01-.03.19-.19.28-.45.41-.68.08-.14.19-.25.28-.39.12-.19.25-.35.43-.48.1-.07.17-.19.26-.3.08.11.19.22.24.35.13.34.33.64.57.9.15.16.36.27.56.38.13.07.27.01.4-.06.11-.06.23-.1.34-.16.09-.06.18-.13.24-.21.2-.29.39-.57.69-.77.21-.14.44-.16.67-.21.04,0,.1.04.13.08.17.23.17.51.15.77-.03.28-.12.56-.19.84-.03.11-.11.17-.22.21-.17.06-.34.14-.51.2-.11.04-.23.06-.34.09-.02,0-.06,0-.07,0-.22.17-.45.02-.68.02-.13,0-.26-.01-.39,0-.11,0-.18.07-.16.18.02.2.04.4.1.58.13.41.45.67.83.8.35.12.71.02,1-.26.09-.09.21-.16.32-.23.02,0,.04.02.05.03,0,.12,0,.24,0,.36,0,.09,0,.16.07.23.09.07.12.18.1.3-.02.1-.02.2,0,.3.02.32-.15.54-.47.55-.23,0-.46,0-.69-.02-.11-.01-.21-.02-.33,0-.2.04-.41.03-.62.03-.14,0-.27,0-.37.11-.2.21-.21.3-.04.54.05.07.1.16.11.24.06.56.33.97.84,1.23.22.11.53.06.69-.11.3-.31.59-.63.97-.84.18-.1.23-.09.26.11.05.32.08.64.11.96.01.1,0,.2.02.3.02.11-.02.19-.09.27-.06.07-.09.18-.1.27,0,.12-.03.18-.16.21-.37.1-.73.23-1.09.33-.2.06-.41.13-.62.15-.2.02-.4-.03-.6-.06-.1-.02-.19-.06-.26.07-.02.04-.09.06-.15.07-.18.03-.35.05-.53.08-.35.06-.44.28-.37.63.08.41.21.8.45,1.15.06.09.14.16.21.24.06.07.14.12.19.2.13.23.35.31.58.37.06.02.15,0,.2-.04.22-.13.44-.27.64-.43.1-.08.16-.2.24-.3.02-.02.03-.05.05-.07.28-.23.55-.47.84-.69.13-.1.29-.16.43-.23.09-.04.33.16.34.27.05.61.1,1.22.15,1.83.01.14-.02.29.02.42.12.35.06.71.12,1.06,0,.03,0,.07,0,.1,0,.18-.01.21-.2.18Zm2.46-13.4c-.03.23-.12.34-.34.43-.27.12-.53.24-.83.28-.19.02-.19.02-.19-.17,0,0,0-.02,0-.03-.11-.36-.04-.74-.05-1.11-.01-.48.15-.67.61-.8.21-.06.42-.14.62-.22.26-.1.26-.11.27.18,0,.11,0,.22.02.37.06.34-.07.69-.11,1.06Zm-1.55-3.32c.1-.13.14-.29.09-.47-.02-.05.03-.13.06-.19.05-.08.14-.14.16-.22.08-.28.32-.4.53-.55.1-.07.19-.15.29-.21.13-.08.26-.16.4-.22.05-.02.12,0,.18,0,.07.01.13.04.19.06.26.06.42.24.43.52,0,.16.05.33-.07.47-.01.01,0,.04-.01.06-.03.3-.05.6-.09.9-.03.22-.12.39-.37.45-.22.06-.42.2-.64.26-.31.09-.63.15-.94.22-.07-.19-.1-.39-.2-.54-.14-.2-.15-.37,0-.56Z"/>
  </g>
  <path class="cls-1" d="m46.06,25.65l7.17,5.34,20.42-8.71-4.15.68v-1.66l-3.87.39-.28-2.07-1.39,1.03-.32.09-.64.18-1.64.46-.13-.83-2.52.58-.34-1-7.48,5.78-3.27-.81-.52-.13-1.04-.26-2.14.92-1.06.44c-.14-.34-.11-.65.62-.76.09-.01.19-.15.23-.25.43-1.02.84-2.06,1.29-3.07.17-.39.37-.84.69-1.08,2.61-1.94,5.33-3.73,7.86-5.77,2.67-2.14,5.31-4.34,7.33-7.17.67-.94.48-1.5-.64-1.7-3.05-.57-6.11-1.13-9.17-1.69C43.04,3.09,34.98,1.63,26.93.1c-1.22-.23-2.01-.08-2.93.92C16.28,9.47,8.48,17.85.71,26.24c-1.11,1.19-.93,1.97.66,2.29,2.96.59,5.92,1.21,8.92,1.56,5.03.59,10.04.29,14.98-.85.27-.06.75-.03.83.12.11.2.24.37.36.55l-.43.2-1.21.47.25,1.74-.83,3.09,8.01,1.69,9.18-1.37,6.33-4.06-1.26-1.98v-.98l-.58-.24-.37-2.27-2.41.38c-.08-.15-.17-.31-.25-.47l2.27-.35.9-.14Zm3.73.78l1.45.55,12.04-5.99.61-.3-10.93,8.06-6.59-3.61,3.42,1.3Zm-5.94-6.48L27.13,3.06l18.63,11.2,3.62,2.05s-4.62,3.63-5.54,3.63Zm-11.45-1.48c.38-.18.75-.37,1.13-.56.04-.02.09-.05.14-.08.02.03.04.04.05.06.3.49.59.98.89,1.46.07.11.07.13-.05.19-.47.24-.93.47-1.41.7-.33.16-.67.31-1,.47-.07.04-.11.02-.14-.05-.27-.52-.54-1.03-.81-1.55-.02-.04-.03-.07.02-.1.4-.18.8-.36,1.19-.55Zm-.76-2.56c.16-.08.32-.16.48-.24.55-.3,1.1-.6,1.64-.9.03-.02.07-.03.11-.06.11.18.21.35.31.52.19.31.38.61.57.91.08.12.07.15-.06.22-.6.33-1.2.65-1.8.98-.14.07-.28.14-.42.21-.11.05-.12.05-.17-.06-.22-.42-.44-.83-.67-1.25-.02-.04-.05-.09-.07-.13-.07-.13-.07-.14.07-.22Zm2.54,4.69c.83-.42,1.67-.83,2.5-1.25.06-.03.09-.02.12.03.34.43.68.87,1.02,1.3q.07.09-.04.16c-.63.35-1.26.7-1.88,1.05-.24.14-.49.26-.76.4-.34-.55-.68-1.09-1.02-1.64.02-.01.03-.03.05-.04Zm4.81,3.31s.38,1.29-.09,1.83c-.47.55-4.28.47-4.28.47,1.86-.72,4.37-2.3,4.37-2.3Zm-10.1-4.77c-.11.05-.22.08-.33.13-.07.03-.11,0-.14-.06-.21-.5-.41-1-.62-1.5-.03-.08,0-.13.07-.16.29-.11.58-.22.87-.34.45-.19.9-.38,1.36-.57.06-.02.12-.04.19-.07.02.02.05.04.07.07.25.49.49.99.74,1.48.04.08,0,.11-.06.13-.71.3-1.42.59-2.13.89Zm1.77,2.21c-.75.28-1.5.56-2.24.84-.11.04-.23.08-.34.12-.09,0-.11-.07-.13-.12-.08-.2-.16-.39-.24-.59-.13-.31-.25-.62-.37-.93-.05-.12-.04-.12.08-.16.81-.29,1.61-.59,2.42-.89.08-.03.11-.02.14.05.25.5.51,1,.77,1.5.06.13.06.14-.07.19Zm22.62-14.09l4.96,1s-2.78,4-5.49,5.79l-1.48-.74L26.57,1.95l26.71,5.3Zm-29.25,11.5c.36-.1.72-.2,1.08-.3.43-.13.86-.27,1.29-.4.16-.05.16-.04.22.11.19.5.38,1,.58,1.5.02.05.02.08-.04.1-.85.25-1.7.51-2.55.76-.03.01-.07.01-.1.02-.07,0-.11-.05-.13-.11-.08-.25-.15-.5-.23-.75-.08-.25-.15-.49-.23-.74-.04-.13-.03-.15.11-.19Zm-.62,2.87c.82-.21,1.63-.43,2.45-.64.12-.03.12-.03.17.08.21.56.42,1.11.63,1.69-.11.03-.21.06-.31.09-.82.21-1.63.43-2.45.64-.13.03-.13.03-.17-.09-.16-.49-.31-.98-.47-1.47,0-.01,0-.02,0-.03-.05-.17-.02-.22.16-.27Zm-3.44-2.02c.8-.15,1.6-.3,2.39-.45.25-.05.26-.04.32.19.13.48.26.95.4,1.43.02.08.02.12-.08.14-.66.13-1.32.27-1.98.39-.23.05-.47.08-.73.12-.01-.02-.04-.04-.05-.07-.12-.55-.24-1.11-.36-1.66-.01-.07,0-.09.07-.1Zm-.84,2.79c.19-.03.38-.04.57-.07.67-.11,1.34-.22,2.01-.34.1-.02.12.02.14.1.15.55.31,1.09.46,1.63.03.1.02.12-.08.14-.19.04-.38.08-.57.11-.66.11-1.32.21-1.98.32-.06,0-.12.01-.16.02-.13,0-.16-.03-.19-.16-.09-.42-.18-.83-.27-1.25-.02-.1-.04-.19-.06-.29-.03-.13,0-.18.14-.2Zm-3.38-2.34c.42-.03.84-.05,1.26-.09.41-.03.82-.08,1.23-.12.06,0,.12,0,.18-.01.13,0,.17.03.2.17.04.22.08.44.12.67.05.27.11.53.17.8.03.13,0,.17-.13.18-.17.02-.33.04-.5.06-.5.05-.99.09-1.49.14-.23.02-.46.03-.69.05-.28.02-.28.02-.32-.25-.06-.47-.12-.94-.17-1.41-.02-.15,0-.17.15-.18Zm-1.08,2.7c.09-.01.18-.01.28-.02.62-.03,1.24-.07,1.86-.1.23-.01.46-.04.69-.05.03,0,.07,0,.1,0,.11.55.21,1.08.31,1.62.01.05.02.11.04.16.03.08,0,.11-.08.11-.45.04-.9.08-1.35.11-.36.03-.73.04-1.09.06-.18,0-.36.02-.54.02-.15,0-.18-.02-.2-.17-.05-.34-.09-.68-.13-1.02-.02-.17-.04-.34-.06-.5-.01-.14.04-.21.18-.22Zm-3.31-2.69c.92.06,1.83.05,2.75.05.22,0,.22,0,.24.22.05.5.1,1,.15,1.51,0,.07-.01.12-.09.13-.05,0-.09.01-.14.01-.32,0-.64,0-1.09,0-.48-.01-1.09-.02-1.7-.04-.04,0-.08-.01-.12-.02-.06,0-.08-.04-.08-.1-.02-.55-.03-1.09-.05-1.64,0-.11.02-.13.13-.13Zm-1.61,7.21c-.67-.06-1.33-.12-2-.19-.32-.03-.63-.08-.95-.11-.14-.02-.14-.01-.14-.15,0-.56,0-1.12,0-1.68,0-.02,0-.03,0-.07.17.02.33.05.49.06.56.06,1.12.13,1.68.19.34.04.69.06,1.03.09.07,0,.11.04.11.11.01.24.03.49.05.73.02.31.05.62.07.93,0,.03,0,.06,0,.11-.12,0-.23,0-.34-.02Zm.46-2.69c-.18-.01-.2-.03-.2-.21-.02-.5-.04-1.01-.06-1.51,0-.13,0-.15.14-.14.31.01.62.04.93.05.6.02,1.21.03,1.81.05.07,0,.13,0,.2.01.14.02.15.04.17.18.02.19.03.37.05.56.03.32.07.65.1.97,0,.04,0,.09,0,.14-.24,0-.46,0-.68,0-.47-.01-.93-.03-1.4-.05-.35-.01-.71-.03-1.06-.05Zm15.37,1.3c-1.16.3-2.32.56-3.5.76-.93.15-1.87.3-2.81.42-.86.11-1.73.17-2.59.24-.49.04-.98.06-1.46.08-.38.02-.76.03-1.13.03-.58,0-1.17,0-1.75,0-.16,0-.32,0-.48-.01-.12,0-.15-.04-.14-.14.04-.58-.05-1.14-.1-1.71.2,0,.39,0,.59,0,.29,0,.59.02.88.02.65,0,1.3,0,1.95-.02.77-.03,1.55-.08,2.32-.14.7-.06,1.4-.12,2.1-.22.98-.14,1.96-.3,2.94-.47,1.18-.21,2.34-.49,3.49-.81,1.25-.35,2.48-.74,3.69-1.19,1.07-.4,2.13-.83,3.17-1.31.05-.02.07-.01.1.03.27.48.55.96.83,1.44.06.11.07.11-.05.16-1.24.57-2.5,1.09-3.79,1.55-1.4.5-2.82.94-4.25,1.31Zm-.53,4.89l1.04-.46.39-.19.43.94-1.86-.29Zm3.42,1.72l-2.55-.84,2.32.18,4.46.92-4.22-.25Zm16.65-5.95l-.74,1.32-.74-1.06,1.48-.26Zm.21,1.07l.11,1.13-3,2.7,3.25-2.32.49.09-5.28,4.44-8.37,1.2,8.3-2.34,4.5-4.9Z"/>
</svg>